<?xml version="1.0" encoding="utf-8"?>
<!-- Generator: Adobe Illustrator 16.0.0, SVG Export Plug-In . SVG Version: 6.00 Build 0)  -->
<!DOCTYPE svg PUBLIC "-//W3C//DTD SVG 1.1//EN" "http://www.w3.org/Graphics/SVG/1.1/DTD/svg11.dtd">
<svg version="1.1" id="Слой_1" xmlns="http://www.w3.org/2000/svg" xmlns:xlink="http://www.w3.org/1999/xlink" x="0px" y="0px"
	 width="38px" height="52px" viewBox="0 0 38 52" enable-background="new 0 0 38 52" xml:space="preserve">
<g>
	<defs>
		<rect id="SVGID_1_" width="38" height="52"/>
	</defs>
	<clipPath id="SVGID_2_">
		<use xlink:href="#SVGID_1_"  overflow="visible"/>
	</clipPath>
	<path clip-path="url(#SVGID_2_)" d="M19,0C8.521,0,0,8.359,0,18.631c0,1.873,0.286,3.68,0.813,5.384
		c2.179,10.151,15.456,25.5,17.284,27.582C18.324,51.856,18.656,52,19,52c0.042,0,0.083,0,0.125-0.006
		c0.321-0.033,0.612-0.19,0.807-0.433l0.072-0.087c4.063-4.72,15.207-18.306,17.188-27.477C37.721,22.3,38,20.497,38,18.631
		C38,8.359,29.473,0,19,0 M19,26.142c-4.256,0-7.719-3.368-7.719-7.511c0-1.397,0.398-2.714,1.092-3.841
		c0.69-1.133,1.681-2.074,2.869-2.715c1.11-0.607,2.398-0.953,3.758-0.953c1.372,0,2.666,0.352,3.783,0.97
		c1.18,0.641,2.166,1.583,2.854,2.715c0.689,1.121,1.083,2.432,1.083,3.824C26.72,22.774,23.257,26.142,19,26.142"/>
</g>
</svg>
