<?xml version="1.0" encoding="utf-8"?>
<!-- Generator: Adobe Illustrator 16.0.0, SVG Export Plug-In . SVG Version: 6.00 Build 0)  -->
<!DOCTYPE svg PUBLIC "-//W3C//DTD SVG 1.1//EN" "http://www.w3.org/Graphics/SVG/1.1/DTD/svg11.dtd">
<svg version="1.1" id="Слой_1" xmlns="http://www.w3.org/2000/svg" xmlns:xlink="http://www.w3.org/1999/xlink" x="0px" y="0px"
	 width="230px" height="200px" viewBox="-15 0 230 200" enable-background="new -15 0 230 200" xml:space="preserve">
<g id="Слой_4">
</g>
<path fill="#C9C9C9" d="M121.006,0.706l-5.253,4.945l-0.75,0.706l-0.75-0.706h-0.001L109,0.706L109.75,0l5.253,4.945L120.256,0
	L121.006,0.706z"/>
<path fill="#FFFFFF" d="M137.537,14.225l-1.523,1.547L137.537,14.225L137.537,14.225z M134.488,14.224L134.488,14.224l1.525,1.548
	L134.488,14.224z M148.496,0l-12.482,12.677L123.529,0l-1.523,1.547l12.483,12.677l1.524,1.548l1.521-1.548L150.02,1.547L148.496,0z
	"/>
<g>
	<g>
		<g>
			<g>
				<g>
					<g>
						<g>
							<g>
								<g>
									<g>
										<g>
											<g>
												<g>
													<g>
														<g>
															<defs>
																<rect id="SVGID_1_" x="155" width="26" height="26"/>
															</defs>
															<clipPath id="SVGID_2_">
																<use xlink:href="#SVGID_1_"  overflow="visible"/>
															</clipPath>
															<path clip-path="url(#SVGID_2_)" d="M158.337,0h19.326C179.498,0,181,1.359,181,3.337v19.326
																c0,1.979-1.502,3.337-3.337,3.337h-19.326c-1.836,0-3.337-1.359-3.337-3.337V3.337C155,1.359,156.501,0,158.337,0
																 M173.939,2.889c-0.646,0-1.17,0.526-1.17,1.171v2.802c0,0.644,0.521,1.17,1.17,1.17h2.938
																c0.645,0,1.17-0.527,1.17-1.17V4.06c0-0.645-0.525-1.171-1.17-1.171H173.939z M178.063,10.995h-2.289
																c0.229,0.707,0.334,1.456,0.334,2.231c0,4.324-3.619,7.83-8.082,7.83s-8.082-3.506-8.082-7.83
																c0-0.775,0.117-1.524,0.334-2.231h-2.387v10.983c0,0.568,0.465,1.034,1.032,1.034h18.104
																c0.568,0,1.035-0.465,1.035-1.034V10.995L178.063,10.995z M168.023,7.884c-2.883,0-5.229,2.265-5.229,5.06
																c0,2.794,2.347,5.06,5.229,5.06c2.885,0,5.224-2.266,5.224-5.06C173.247,10.149,170.909,7.884,168.023,7.884"/>
														</g>
													</g>
												</g>
											</g>
										</g>
									</g>
								</g>
							</g>
						</g>
					</g>
				</g>
			</g>
		</g>
	</g>
</g>
<g display="none">
	<g display="inline">
		<g>
			<g>
				<g>
					<g>
						<g>
							<g>
								<g>
									<g>
										<g>
											<g>
												<g>
													<g>
														<defs>
															<rect id="SVGID_3_" x="5" y="30" width="24.175" height="34"/>
														</defs>
														<clipPath id="SVGID_4_">
															<use xlink:href="#SVGID_3_"  overflow="visible"/>
														</clipPath>
														
															<circle clip-path="url(#SVGID_4_)" fill="none" stroke="#231F20" stroke-width="4" stroke-miterlimit="10" cx="17.088" cy="42.182" r="4.155"/>
													</g>
												</g>
											</g>
										</g>
									</g>
								</g>
							</g>
						</g>
					</g>
				</g>
			</g>
		</g>
	</g>
</g>
<g display="none">
	<g display="inline">
		<g>
			<g>
				<g>
					<g>
						<g>
							<g>
								<g>
									<g>
										<g>
											<g>
												<g>
													<g>
														<defs>
															<rect id="SVGID_5_" x="5" y="30" width="24.175" height="34"/>
														</defs>
														<clipPath id="SVGID_6_">
															<use xlink:href="#SVGID_5_"  overflow="visible"/>
														</clipPath>
														<path clip-path="url(#SVGID_6_)" fill="#231F20" d="M17.088,30C10.42,30,5,35.465,5,42.182
															c0,1.224,0.181,2.406,0.518,3.52c1.386,6.637,9.833,16.674,10.996,18.034C16.657,63.905,16.868,64,17.088,64
															c0.026,0,0.052,0,0.079-0.003c0.205-0.023,0.39-0.125,0.514-0.284l0.045-0.057c2.583-3.086,9.673-11.97,10.935-17.965
															c0.336-1.111,0.514-2.29,0.514-3.509C29.175,35.465,23.751,30,17.088,30 M17.084,62.07
															c-2.391-2.864-5.153-6.614-7.211-10.124c-1.477-2.526-2.595-4.929-2.942-6.792c-0.272-0.944-0.419-1.941-0.419-2.972
															c0-0.45,0.027-0.892,0.083-1.326c0.649-5.262,5.107-9.345,10.494-9.345c5.39,0,9.855,4.091,10.497,9.36
															c0.053,0.427,0.079,0.865,0.079,1.311c0,0.978-0.132,1.926-0.377,2.825c-0.298,1.828-1.383,4.246-2.954,6.917
															C22.44,55.135,19.849,58.715,17.084,62.07"/>
													</g>
												</g>
											</g>
										</g>
									</g>
								</g>
							</g>
						</g>
					</g>
				</g>
			</g>
		</g>
	</g>
</g>
<g display="none">
	<g display="inline">
		<g>
			<g>
				<g>
					<g>
						<g>
							<g>
								<g>
									<g>
										<g>
											<g>
												<g>
													<g>
														<defs>
															<rect id="SVGID_7_" x="36" y="32" width="29.998" height="30"/>
														</defs>
														<clipPath id="SVGID_8_">
															<use xlink:href="#SVGID_7_"  overflow="visible"/>
														</clipPath>
														<path clip-path="url(#SVGID_8_)" fill="#231F20" d="M36.024,38.301c0.025,0.229,0.068,0.463,0.131,0.692
															C36.107,38.765,36.065,38.533,36.024,38.301"/>
													</g>
												</g>
											</g>
										</g>
									</g>
								</g>
							</g>
						</g>
					</g>
				</g>
			</g>
		</g>
	</g>
	<g display="inline">
		<g>
			<g>
				<g>
					<g>
						<g>
							<g>
								<g>
									<g>
										<g>
											<g>
												<g>
													<g>
														<defs>
															<rect id="SVGID_9_" x="36" y="32" width="29.998" height="30"/>
														</defs>
														<clipPath id="SVGID_10_">
															<use xlink:href="#SVGID_9_"  overflow="visible"/>
														</clipPath>
														<path clip-path="url(#SVGID_10_)" fill="#231F20" d="M64.65,52.962c-0.278-0.273-1.233-1.186-1.755-1.434
															c-1.089-0.524-2.254-0.821-3.273-0.835c-1.114-0.013-2.149,0.399-2.917,1.167l-0.846,0.846
															c-0.09,0.09-0.173,0.183-0.253,0.283c-2.286-1.097-4.368-2.574-6.19-4.396c-1.823-1.824-3.303-3.908-4.399-6.198
															c0.095-0.081,0.19-0.166,0.278-0.254l0.846-0.846c0.768-0.768,1.182-1.801,1.167-2.917
															c-0.014-1.019-0.31-2.182-0.836-3.273c-0.249-0.521-1.16-1.477-1.44-1.762c-1.715-1.716-4.428-1.797-6.047-0.178
															l-1.821,1.821c-0.054,0.053-0.107,0.112-0.158,0.168c-0.775,0.872-1.099,2.015-0.98,3.148
															c0.042,0.232,0.083,0.464,0.131,0.693c0,0.005,0.003,0.012,0.005,0.019c1.124,5.491,3.776,10.673,7.968,14.865
															c4.194,4.195,9.381,6.846,14.879,7.967c0.015,0.005,0.032,0.007,0.049,0.015c0.195,0.039,0.39,0.079,0.587,0.109
															c1.146,0.137,2.31-0.185,3.195-0.972c0.061-0.051,0.12-0.104,0.175-0.161l1.821-1.821
															C66.454,57.397,66.373,54.685,64.65,52.962 M62.04,59.861c-0.59,0.59-1.407,0.836-2.218,0.741
															c-0.137-0.015-0.273-0.039-0.407-0.076c-1.189-0.239-2.364-0.551-3.517-0.938c-3.97-1.333-7.67-3.561-10.795-6.685
															c-3.125-3.125-5.353-6.825-6.686-10.795c-0.377-1.123-0.685-2.264-0.919-3.424c-0.002-0.007-0.005-0.015-0.005-0.019
															c-0.056-0.183-0.087-0.371-0.105-0.554v-0.01c-0.068-0.785,0.176-1.569,0.749-2.143l1.821-1.82
															c1.082-1.083,2.92-0.999,4.092,0.173c0.488,0.498,1.078,1.175,1.178,1.387c0.439,0.916,0.689,1.874,0.699,2.698
															c0.012,0.739-0.26,1.421-0.763,1.923l-0.846,0.846c-0.155,0.156-0.329,0.29-0.519,0.402
															c-0.014,0.009-0.031,0.017-0.046,0.027c-0.268,0.185-0.373,0.543-0.237,0.85c0.095,0.212,0.193,0.422,0.295,0.626
															c1.16,2.398,2.715,4.582,4.628,6.495c1.911,1.912,4.09,3.466,6.486,4.624c0.208,0.105,0.415,0.199,0.626,0.294
															c0.331,0.146,0.707,0.02,0.879-0.285c0.11-0.188,0.247-0.363,0.403-0.519l0.845-0.846
															c0.502-0.502,1.187-0.772,1.926-0.76c0.821,0.007,1.779,0.258,2.696,0.697c0.214,0.103,0.89,0.689,1.382,1.172
															c1.18,1.18,1.26,3.015,0.178,4.098L62.04,59.861z"/>
													</g>
												</g>
											</g>
										</g>
									</g>
								</g>
							</g>
						</g>
					</g>
				</g>
			</g>
		</g>
	</g>
</g>
<g display="none">
	<g display="inline">
		<g>
			<g>
				<g>
					<g>
						<g>
							<g>
								<g>
									<g>
										<g>
											<g>
												<g>
													<g>
														<defs>
															<rect id="SVGID_11_" x="69" y="36" width="32" height="22.857"/>
														</defs>
														<clipPath id="SVGID_12_">
															<use xlink:href="#SVGID_11_"  overflow="visible"/>
														</clipPath>
														<path clip-path="url(#SVGID_12_)" fill="#231F20" d="M100.883,37.558c-0.156-0.469-0.465-0.869-0.861-1.147
															C99.652,36.152,99.203,36,98.714,36H71.286c-0.487,0-0.937,0.152-1.307,0.411c-0.396,0.278-0.705,0.678-0.86,1.147
															C69.042,37.786,69,38.031,69,38.286v18.286c0,1.261,1.025,2.286,2.286,2.286h27.428c1.261,0,2.286-1.024,2.286-2.286
															V38.286C101,38.031,100.957,37.786,100.883,37.558 M99.476,56.571c0,0.419-0.343,0.762-0.762,0.762H71.286
															c-0.419,0-0.762-0.343-0.762-0.762V38.286c0-0.419,0.342-0.762,0.762-0.762h27.428c0.419,0,0.762,0.343,0.762,0.762
															V56.571L99.476,56.571z"/>
													</g>
												</g>
											</g>
										</g>
									</g>
								</g>
							</g>
						</g>
					</g>
				</g>
			</g>
		</g>
	</g>
</g>
<g display="none">
	<g display="inline">
		<g>
			<g>
				<g>
					<g>
						<g>
							<g>
								<g>
									<g>
										<g>
											<g>
												<g>
													<g>
														<defs>
															<rect id="SVGID_13_" x="69" y="36" width="32" height="22.857"/>
														</defs>
														<clipPath id="SVGID_14_">
															<use xlink:href="#SVGID_13_"  overflow="visible"/>
														</clipPath>
														<path clip-path="url(#SVGID_14_)" fill="#231F20" d="M100.883,37.558c-0.051,0.072-0.111,0.137-0.184,0.19
															l-1.224,0.925L85.461,49.307c-0.137,0.103-0.297,0.152-0.461,0.152s-0.324-0.05-0.461-0.152L70.524,38.674
															l-1.223-0.925c-0.072-0.053-0.133-0.119-0.183-0.19c0.156-0.469,0.465-0.869,0.86-1.147
															c0.084,0.027,0.168,0.068,0.244,0.126l1.303,0.986L85,47.741l13.474-10.218l1.304-0.986
															c0.076-0.058,0.16-0.099,0.244-0.126C100.418,36.689,100.727,37.089,100.883,37.558"/>
													</g>
												</g>
											</g>
										</g>
									</g>
								</g>
							</g>
						</g>
					</g>
				</g>
			</g>
		</g>
	</g>
</g>
<g display="none">
	<g display="inline">
		<g>
			<g>
				<g>
					<g>
						<g>
							<g>
								<g>
									<g>
										<g>
											<g>
												<g>
													<defs>
														<rect id="SVGID_15_" x="33.979" y="70" width="7.875" height="14"/>
													</defs>
													<clipPath id="SVGID_16_">
														<use xlink:href="#SVGID_15_"  overflow="visible"/>
													</clipPath>
													<path clip-path="url(#SVGID_16_)" fill="#C9C9C9" d="M39.229,75.25h2.625v2.625h-2.625V84h-2.625v-6.125h-2.625V75.25
														h2.625v-1.098c0-1.04,0.327-2.354,0.979-3.073C38.233,70.359,39.046,70,40.02,70h1.834v2.625h-1.837
														c-0.436,0-0.788,0.352-0.788,0.787V75.25z"/>
												</g>
											</g>
										</g>
									</g>
								</g>
							</g>
						</g>
					</g>
				</g>
			</g>
		</g>
	</g>
	<g display="inline">
		<g>
			<g>
				<g>
					<g>
						<g>
							<g>
								<g>
									<g>
										<g>
											<g>
												<g>
													<defs>
														<rect id="SVGID_17_" x="33.979" y="70" width="7.875" height="14"/>
													</defs>
													<clipPath id="SVGID_18_">
														<use xlink:href="#SVGID_17_"  overflow="visible"/>
													</clipPath>
													<path clip-path="url(#SVGID_18_)" fill="#C9C9C9" d="M109.229,75.25h2.625v2.625h-2.625V84h-2.625v-6.125h-2.625V75.25
														h2.625v-1.098c0-1.04,0.328-2.354,0.979-3.073c0.649-0.72,1.465-1.079,2.438-1.079h1.834v2.625h-1.836
														c-0.438,0-0.789,0.352-0.789,0.787v1.838H109.229z"/>
												</g>
											</g>
										</g>
									</g>
								</g>
							</g>
						</g>
					</g>
				</g>
			</g>
		</g>
	</g>
</g>
<path fill="#0B0B0B" d="M101,32v1.3h-3.7V37H96v-5H101z M96,46h5v-1.3h-3.7V41H96V46z M105,32v1.3h3.7V37h1.3v-5H105z M110,41h-1.3
	v3.7H105V46h5V41z"/>
<path display="none" fill="#0B0B0B" d="M134.215,30c-3.564,0-6.464,2.918-6.464,6.503c0,0.607,0.079,1.195,0.235,1.763
	c0.234,1.292,1.037,2.958,2.39,5.014c1.565,2.409,3.31,4.446,3.39,4.524c0.116,0.137,0.273,0.196,0.449,0.196
	c0.02,0,0.039,0,0.059,0c0.158-0.02,0.295-0.098,0.396-0.215l0.021-0.02c1.705-2.037,5.095-6.385,5.722-9.421l0,0
	c0.176-0.587,0.255-1.195,0.255-1.841C140.68,32.918,137.779,30,134.215,30z M139.288,38.03c-0.177,0.96-0.784,2.37-1.92,4.152
	c-0.783,1.254-1.821,2.703-3.153,4.329c-1.058-1.292-2.193-2.84-3.113-4.309c-1.02-1.625-1.783-3.173-1.959-4.27
	c-0.117-0.451-0.195-0.94-0.195-1.43c0-0.412,0.039-0.803,0.146-1.195c0.518-2.37,2.625-4.133,5.139-4.133
	c2.51,0,4.619,1.782,5.146,4.152c0.069,0.372,0.138,0.783,0.138,1.175C139.503,37.051,139.425,37.561,139.288,38.03z
	 M136.762,35.484c-0.234-0.588-0.687-1.078-1.234-1.391c-0.391-0.216-0.842-0.333-1.313-0.333c-0.47,0-0.921,0.117-1.313,0.333
	c-0.549,0.293-1,0.783-1.233,1.371c-0.138,0.313-0.196,0.666-0.196,1.038c0,1.508,1.234,2.742,2.742,2.742s2.742-1.234,2.742-2.742
	C136.957,36.15,136.898,35.798,136.762,35.484z M134.215,38.07c-0.861,0-1.566-0.705-1.566-1.567c0-0.529,0.254-0.979,0.646-1.273
	c0.255-0.196,0.566-0.293,0.921-0.293s0.666,0.117,0.923,0.293c0.391,0.294,0.646,0.745,0.646,1.273
	C135.782,37.365,135.076,38.07,134.215,38.07z"/>
<path display="none" fill="#0B0B0B" d="M17.105,30c-6.732,0-12.209,5.513-12.209,12.283c0,1.147,0.15,2.257,0.445,3.33
	c0.444,2.441,1.961,5.586,4.514,9.471c2.958,4.551,6.251,8.397,6.401,8.546c0.221,0.259,0.518,0.37,0.85,0.37
	c0.037,0,0.074,0,0.111,0c0.297-0.037,0.555-0.186,0.74-0.407l0.037-0.037c3.219-3.848,9.62-12.061,10.804-17.795l0,0
	c0.332-1.109,0.481-2.257,0.481-3.478C29.315,35.513,23.839,30,17.105,30z M26.689,45.168c-0.334,1.813-1.481,4.477-3.626,7.843
	c-1.479,2.369-3.441,5.106-5.957,8.176c-1.998-2.441-4.143-5.364-5.882-8.139c-1.924-3.07-3.366-5.993-3.7-8.065
	c-0.221-0.851-0.369-1.776-0.369-2.701c0-0.777,0.074-1.517,0.258-2.257c0.963-4.477,4.958-7.806,9.693-7.806
	c4.736,0,8.731,3.366,9.731,7.843c0.147,0.703,0.258,1.479,0.258,2.22C27.095,43.319,26.947,44.281,26.689,45.168z M21.915,40.359
	c-0.443-1.111-1.295-2.036-2.33-2.627c-0.74-0.408-1.592-0.629-2.479-0.629s-1.739,0.221-2.479,0.629
	c-1.035,0.554-1.887,1.479-2.33,2.59c-0.26,0.592-0.371,1.258-0.371,1.961c0,2.849,2.332,5.18,5.18,5.18
	c2.849,0,5.18-2.332,5.18-5.18C22.286,41.617,22.175,40.951,21.915,40.359z M17.105,45.243c-1.627,0-2.96-1.332-2.96-2.96
	c0-0.999,0.481-1.85,1.221-2.405c0.481-0.37,1.074-0.554,1.739-0.554c0.666,0,1.258,0.221,1.74,0.554
	c0.74,0.555,1.221,1.406,1.221,2.405C20.066,43.911,18.733,45.243,17.105,45.243z"/>
<path fill="#0B0B0B" d="M141.286,32h-2.478v-0.762c0-0.324-0.248-0.571-0.57-0.571c-0.324,0-0.571,0.248-0.571,0.571V32h-5.334
	v-0.762c0-0.324-0.247-0.571-0.571-0.571c-0.322,0-0.57,0.248-0.57,0.571V32h-2.478c-0.952,0-1.714,0.762-1.714,1.714v12.571
	c0,0.952,0.762,1.715,1.714,1.715h12.572c0.952,0,1.714-0.763,1.714-1.715V33.714C143,32.762,142.238,32,141.286,32z
	 M141.857,46.285c0,0.305-0.248,0.571-0.571,0.571h-12.572c-0.323,0-0.571-0.267-0.571-0.571v-9.391h13.715V46.285L141.857,46.285z
	 M141.857,35.752h-13.715v-2.038c0-0.324,0.248-0.571,0.563-0.571h2.479v0.762c0,0.324,0.248,0.572,0.57,0.572
	c0.32,0,0.566-0.248,0.566-0.572v-0.762h5.334v0.762c0,0.324,0.246,0.572,0.566,0.572s0.567-0.248,0.567-0.572v-0.762h2.479
	c0.316,0,0.563,0.248,0.563,0.571v2.038H141.857z M132.523,40.724c0,0.209-0.172,0.381-0.381,0.381H131
	c-0.21,0-0.381-0.172-0.381-0.381v-1.143c0-0.21,0.171-0.382,0.381-0.382h1.143c0.211,0,0.381,0.172,0.381,0.382V40.724
	L132.523,40.724z M135.952,40.724c0,0.209-0.171,0.381-0.382,0.381h-1.146c-0.21,0-0.381-0.172-0.381-0.381v-1.143
	c0-0.21,0.171-0.382,0.381-0.382h1.146c0.211,0,0.382,0.172,0.382,0.382V40.724z M139.381,40.724c0,0.209-0.171,0.381-0.381,0.381
	h-1.143c-0.211,0-0.381-0.172-0.381-0.381v-1.143c0-0.21,0.17-0.382,0.381-0.382H139c0.21,0,0.381,0.172,0.381,0.382V40.724z
	 M132.523,44.152c0,0.209-0.172,0.381-0.381,0.381H131c-0.21,0-0.381-0.172-0.381-0.381v-1.144c0-0.209,0.171-0.381,0.381-0.381
	h1.143c0.211,0,0.381,0.172,0.381,0.381V44.152L132.523,44.152z M135.952,44.152c0,0.209-0.171,0.381-0.382,0.381h-1.146
	c-0.21,0-0.381-0.172-0.381-0.381v-1.144c0-0.209,0.171-0.381,0.381-0.381h1.146c0.211,0,0.382,0.172,0.382,0.381V44.152z
	 M139.381,44.152c0,0.209-0.171,0.381-0.381,0.381h-1.143c-0.211,0-0.381-0.172-0.381-0.381v-1.144c0-0.209,0.17-0.381,0.381-0.381
	H139c0.21,0,0.381,0.172,0.381,0.381V44.152z"/>
<path fill="#FFFFFF" d="M-15,111.998l0.001,0.002l0.008-0.008L-15,111.998z M-13.651,112l17.276,21.341L2.811,134l-17.808-21.998
	L-14.999,112l0.008-0.008L2.811,90l0.814,0.658L-13.651,112z"/>
<path fill="#FFFFFF" d="M23.625,112.002L23.624,112l-0.008,0.008L23.625,112.002z M22.276,112L5,90.659L5.814,90l17.808,21.998
	L23.624,112l-0.008,0.008L5.814,134L5,133.342L22.276,112z"/>
<path fill="#FFFFFF" d="M41,106h-3v-3h3V106z M53,103h-3v3h3V103z M47,103h-3v3h3V103z M41,109h-3v3h3V109z M53,109h-3v3h3V109z
	 M47,109h-3v3h3V109z M41,115h-3v3h3V115z M53,115h-3v3h3V115z M47,115h-3v3h3V115z"/>
<path fill="#FFFFFF" d="M93.143,102v8h-2v-6h-6v-2H93.143z M85.143,118v-2h-6v-6h-2v8H85.143z"/>
<path fill="#FFFFFF" d="M126,109v-8h2v6h6v2H126z M116,111v2h6v6h2v-8H116z"/>
<path fill="#0B0B0B" d="M164.833,39l9.048,9.167L173.047,49L164,39.833l-9.167,9.048L154,48.048L163.167,39l-9.048-9.167L154.953,29
	L164,38.167l9.167-9.048L174,29.952L164.833,39z"/>
<path fill="#FFFFFF" d="M-15,160.999l0.001,0.002l0.008-0.008L-15,160.999z M-13.696,161.001L3,181.372L2.213,182l-17.21-20.997
	l-0.002-0.002l0.008-0.008L2.213,140L3,140.629L-13.696,161.001z"/>
<path fill="#0B0B0B" d="M25,160.999l0.001,0.002l0.008-0.008L25,160.999z M26.304,161.001L43,181.372L42.213,182l-17.21-20.997
	l-0.002-0.002l0.008-0.008L42.213,140L43,140.629L26.304,161.001z"/>
<path fill="#0B0B0B" d="M63,161.001l-0.001-0.002l-0.008,0.008L63,161.001z M61.696,160.999L45,140.628L45.787,140l17.21,20.997
	l0.002,0.002l-0.008,0.008L45.787,182L45,181.371L61.696,160.999z"/>
<path fill="#FFFFFF" d="M23,161.001l-0.001-0.002l-0.008,0.008L23,161.001z M21.696,160.999L5,140.628L5.787,140l17.21,20.997
	l0.002,0.002l-0.008,0.008L5.787,182L5,181.371L21.696,160.999z"/>
<path fill="#0B0B0B" d="M74,147.5l-0.826,0.758L65.825,155L65,154.242l7.348-6.742L65,140.758L65.825,140l7.349,6.742L74,147.5z
	 M73.174,148.258L73.174,148.258L74,147.5L73.174,148.258z M73.174,146.742L74,147.5l0,0L73.174,146.742z"/>
<path fill="#FFFFFF" d="M84,147.5l-0.826,0.758L75.825,155L75,154.242l7.348-6.742L75,140.758L75.825,140l7.349,6.742L84,147.5z
	 M83.174,148.258L83.174,148.258L84,147.5L83.174,148.258z M83.174,146.742L84,147.5l0,0L83.174,146.742z"/>
<path d="M2,47.092c-2.688,0-4.876-2.203-4.876-4.911S-0.688,37.27,2,37.27s4.876,2.203,4.876,4.911S4.688,47.092,2,47.092z
	 M2,38.782c-1.861,0-3.375,1.525-3.375,3.399c0,1.875,1.514,3.4,3.375,3.4s3.375-1.525,3.375-3.4
	C5.375,40.307,3.861,38.782,2,38.782z M2,30c-6.619,0-12,5.466-12,12.182c0,1.224,0.18,2.406,0.514,3.521
	C-8.11,52.34,0.276,62.376,1.431,63.736C1.573,63.906,1.783,64,2,64c0.026,0,0.053,0,0.079-0.004
	c0.203-0.023,0.386-0.125,0.51-0.283l0.045-0.056c2.564-3.086,9.604-11.971,10.857-17.965C13.824,44.581,14,43.402,14,42.183
	C14.001,35.466,8.616,30,2,30 M1.996,62.07c-2.374-2.863-5.115-6.614-7.159-10.124c-1.466-2.526-2.577-4.929-2.92-6.791
	c-0.27-0.944-0.417-1.941-0.417-2.973c0-0.45,0.026-0.892,0.083-1.326c0.646-5.262,5.07-9.346,10.418-9.346
	c5.352,0,9.784,4.091,10.422,9.36c0.053,0.427,0.079,0.865,0.079,1.311c0,0.978-0.131,1.926-0.375,2.825
	c-0.296,1.828-1.373,4.246-2.933,6.917C7.314,55.135,4.742,58.716,1.996,62.07"/>
<path fill="#FFFFFF" d="M107.001,67.092c-2.689,0-4.877-2.203-4.877-4.911s2.188-4.911,4.877-4.911c2.688,0,4.875,2.203,4.875,4.911
	S109.688,67.092,107.001,67.092z M107.001,58.782c-1.861,0-3.375,1.525-3.375,3.399c0,1.875,1.514,3.4,3.375,3.4
	c1.859,0,3.374-1.525,3.374-3.4C110.376,60.307,108.862,58.782,107.001,58.782z M107.001,50C100.381,50,95,55.466,95,62.182
	c0,1.224,0.181,2.406,0.515,3.521c1.376,6.637,9.762,16.673,10.917,18.033c0.143,0.17,0.353,0.264,0.569,0.264
	c0.025,0,0.053,0,0.077-0.004c0.204-0.023,0.388-0.125,0.512-0.283l0.044-0.056c2.564-3.086,9.604-11.971,10.858-17.965
	c0.331-1.111,0.508-2.29,0.508-3.509C119.002,55.466,113.617,50,107.001,50 M106.997,82.07c-2.374-2.863-5.115-6.614-7.159-10.124
	c-1.467-2.526-2.577-4.929-2.921-6.791c-0.271-0.944-0.416-1.941-0.416-2.973c0-0.45,0.025-0.892,0.081-1.326
	c0.646-5.262,5.071-9.346,10.419-9.346c5.352,0,9.784,4.091,10.423,9.36c0.053,0.427,0.079,0.865,0.079,1.311
	c0,0.978-0.132,1.926-0.376,2.825c-0.295,1.828-1.372,4.246-2.932,6.917C112.315,75.135,109.743,78.716,106.997,82.07"/>
<path d="M21.03,38.343c0.035,0.241,0.069,0.448,0.138,0.69C21.133,38.792,21.099,38.584,21.03,38.343z M49.69,53.001
	c-0.276-0.276-1.242-1.172-1.759-1.448c-1.104-0.518-2.242-0.828-3.276-0.828c-1.104,0-2.138,0.414-2.932,1.173l-0.862,0.862
	c-0.104,0.104-0.173,0.172-0.242,0.276c-2.276-1.104-4.38-2.587-6.208-4.415c-1.828-1.828-3.311-3.897-4.415-6.208
	c0.104-0.069,0.207-0.172,0.276-0.242l0.862-0.862c0.759-0.758,1.173-1.793,1.173-2.931c0-1.035-0.311-2.173-0.828-3.277
	c-0.241-0.517-1.172-1.483-1.448-1.759c-1.725-1.725-4.415-1.793-6.036-0.172l-1.828,1.828c-0.069,0.069-0.104,0.104-0.172,0.173
	c-0.759,0.862-1.104,2-0.966,3.138c0.035,0.242,0.069,0.449,0.138,0.69c0,0,0,0,0,0.035c1.138,5.483,3.794,10.691,7.967,14.865
	c4.208,4.208,9.381,6.863,14.899,7.967h0.035c0.207,0.035,0.379,0.069,0.586,0.104c1.138,0.138,2.311-0.172,3.208-0.966
	c0.069-0.034,0.104-0.104,0.173-0.172l1.828-1.828C51.484,57.45,51.415,54.726,49.69,53.001z M47.069,59.899
	c-0.586,0.586-1.414,0.828-2.208,0.724c-0.138,0-0.276-0.034-0.414-0.069c-1.207-0.241-2.379-0.552-3.518-0.931
	c-3.966-1.345-7.691-3.553-10.795-6.691c-3.104-3.139-5.38-6.829-6.691-10.795c-0.379-1.138-0.69-2.276-0.931-3.415c0,0,0,0,0-0.035
	c-0.069-0.172-0.104-0.379-0.104-0.552l0,0c-0.069-0.793,0.172-1.586,0.759-2.138l1.828-1.828c1.069-1.069,2.932-1,4.104,0.173
	c0.482,0.482,1.069,1.172,1.172,1.379c0.448,0.931,0.69,1.862,0.69,2.69c0,0.725-0.276,1.414-0.759,1.932l-0.862,0.862
	c-0.172,0.172-0.345,0.276-0.517,0.414c0,0-0.035,0-0.035,0.035c-0.276,0.172-0.379,0.552-0.242,0.862
	c0.104,0.207,0.207,0.414,0.311,0.621c1.173,2.414,2.725,4.587,4.622,6.484s4.104,3.483,6.484,4.622
	c0.207,0.104,0.414,0.207,0.621,0.311c0.345,0.138,0.724,0.034,0.896-0.276c0.104-0.172,0.241-0.379,0.414-0.518l0.862-0.862
	c0.518-0.517,1.173-0.759,1.932-0.759c0.828,0,1.793,0.242,2.69,0.69c0.207,0.104,0.897,0.69,1.38,1.172
	c1.172,1.173,1.276,3.001,0.172,4.104L47.069,59.899z"/>
<path fill="#FFFFFF" d="M126.03,58.343c0.035,0.241,0.069,0.448,0.138,0.69C126.133,58.792,126.1,58.584,126.03,58.343z
	 M154.69,73.001c-0.276-0.276-1.241-1.172-1.759-1.448c-1.104-0.518-2.242-0.828-3.276-0.828c-1.104,0-2.138,0.414-2.932,1.173
	l-0.862,0.862c-0.104,0.104-0.173,0.172-0.242,0.276c-2.275-1.104-4.38-2.587-6.207-4.415c-1.828-1.828-3.312-3.897-4.416-6.208
	c0.104-0.069,0.207-0.172,0.276-0.242l0.862-0.862c0.759-0.758,1.173-1.793,1.173-2.931c0-1.035-0.312-2.173-0.828-3.277
	c-0.241-0.517-1.172-1.483-1.448-1.759c-1.725-1.725-4.414-1.793-6.035-0.172l-1.828,1.828c-0.069,0.069-0.104,0.104-0.172,0.173
	c-0.76,0.862-1.104,2-0.967,3.138c0.035,0.242,0.069,0.449,0.139,0.69c0,0,0,0,0,0.035c1.138,5.483,3.793,10.691,7.967,14.865
	c4.207,4.208,9.381,6.863,14.898,7.967h0.035c0.207,0.035,0.379,0.069,0.586,0.104c1.139,0.138,2.311-0.172,3.208-0.966
	c0.069-0.034,0.104-0.104,0.173-0.172l1.828-1.828C156.484,77.451,156.416,74.727,154.69,73.001z M152.069,79.899
	c-0.586,0.586-1.414,0.828-2.208,0.724c-0.138,0-0.275-0.034-0.414-0.069c-1.207-0.241-2.379-0.552-3.518-0.931
	c-3.967-1.345-7.691-3.553-10.795-6.691c-3.104-3.139-5.381-6.829-6.691-10.795c-0.379-1.138-0.689-2.276-0.931-3.415
	c0,0,0,0,0-0.035c-0.069-0.172-0.104-0.379-0.104-0.552l0,0c-0.068-0.793,0.172-1.586,0.76-2.138l1.828-1.828
	c1.068-1.069,2.932-1,4.104,0.173c0.482,0.482,1.068,1.172,1.172,1.379c0.447,0.931,0.689,1.862,0.689,2.69
	c0,0.725-0.275,1.414-0.758,1.932l-0.863,0.862c-0.172,0.172-0.344,0.276-0.516,0.414c0,0-0.035,0-0.035,0.035
	c-0.276,0.172-0.379,0.552-0.242,0.862c0.104,0.207,0.207,0.414,0.311,0.621c1.173,2.414,2.725,4.587,4.622,6.484
	s4.104,3.483,6.483,4.622c0.207,0.104,0.414,0.207,0.621,0.311c0.346,0.138,0.725,0.034,0.896-0.276
	c0.104-0.172,0.241-0.379,0.414-0.518l0.861-0.862c0.519-0.517,1.174-0.759,1.933-0.759c0.828,0,1.793,0.242,2.69,0.69
	c0.207,0.104,0.896,0.69,1.379,1.172c1.173,1.173,1.277,3.001,0.173,4.104L152.069,79.899z"/>
<path d="M85.887,37.562c-0.152-0.457-0.458-0.876-0.877-1.143C84.628,36.152,84.209,36,83.714,36H56.286
	c-0.495,0-0.952,0.152-1.295,0.419c-0.381,0.267-0.724,0.686-0.876,1.143C54.038,37.791,54,38.019,54,38.286v18.286
	c0,1.257,1.028,2.286,2.286,2.286h27.429c1.257,0,2.286-1.029,2.286-2.286V38.286C86,38.019,85.962,37.791,85.887,37.562z
	 M83.486,37.524L70,47.733L56.514,37.524H83.486z M84.476,56.572c0,0.419-0.343,0.762-0.762,0.762H56.286
	c-0.419,0-0.762-0.343-0.762-0.762V38.667l14.019,10.628c0.152,0.114,0.305,0.152,0.457,0.152s0.305-0.038,0.457-0.152
	l14.019-10.628V56.572z"/>
<path fill="#FFFFFF" d="M190.887,57.562c-0.152-0.457-0.457-0.876-0.877-1.143c-0.382-0.267-0.801-0.419-1.296-0.419h-27.428
	c-0.495,0-0.952,0.152-1.295,0.419c-0.382,0.267-0.724,0.686-0.876,1.143c-0.077,0.229-0.115,0.457-0.115,0.724v18.286
	c0,1.257,1.027,2.286,2.286,2.286h27.429c1.258,0,2.286-1.029,2.286-2.286V58.286C191,58.019,190.962,57.791,190.887,57.562z
	 M188.486,57.524L175,67.733l-13.486-10.209H188.486z M189.477,76.572c0,0.419-0.344,0.762-0.763,0.762h-27.428
	c-0.419,0-0.763-0.343-0.763-0.762V58.667l14.02,10.628c0.152,0.114,0.305,0.152,0.457,0.152s0.305-0.038,0.457-0.152l14.02-10.628
	V76.572z"/>
<path fill="#0B0B0B" d="M118.714,30c-3.563,0-6.464,2.918-6.464,6.503c0,0.607,0.079,1.195,0.234,1.763
	c0.229,1.292,1.037,2.958,2.391,5.014c1.564,2.409,3.311,4.446,3.391,4.524c0.115,0.137,0.272,0.196,0.448,0.196
	c0.021,0,0.039,0,0.06,0c0.158-0.02,0.295-0.098,0.396-0.215l0.021-0.02c1.705-2.037,5.095-6.385,5.722-9.421l0,0
	c0.176-0.587,0.255-1.195,0.255-1.841C125.18,32.918,122.277,30,118.714,30z M123.787,38.03c-0.178,0.96-0.784,2.37-1.92,4.152
	c-0.783,1.254-1.821,2.703-3.153,4.329c-1.058-1.292-2.192-2.84-3.112-4.309c-1.021-1.625-1.783-3.173-1.959-4.27
	c-0.117-0.451-0.189-0.94-0.189-1.43c0-0.412,0.033-0.803,0.139-1.195c0.516-2.37,2.625-4.133,5.137-4.133
	c2.51,0,4.619,1.782,5.146,4.152c0.07,0.372,0.139,0.783,0.139,1.175C124.002,37.051,123.924,37.561,123.787,38.03z M121.262,35.484
	c-0.234-0.588-0.688-1.078-1.234-1.391c-0.391-0.216-0.842-0.333-1.313-0.333c-0.47,0-0.921,0.117-1.313,0.333
	c-0.549,0.293-1,0.783-1.232,1.371c-0.139,0.313-0.195,0.666-0.195,1.038c0,1.508,1.233,2.742,2.741,2.742
	c1.509,0,2.742-1.234,2.742-2.742C121.456,36.15,121.396,35.798,121.262,35.484z M118.714,38.07c-0.86,0-1.565-0.705-1.565-1.567
	c0-0.529,0.254-0.979,0.646-1.273c0.255-0.196,0.564-0.293,0.921-0.293c0.357,0,0.666,0.117,0.925,0.293
	c0.396,0.294,0.646,0.745,0.646,1.273C120.281,37.365,119.575,38.07,118.714,38.07z"/>
<path id="ic_x5F_menu" fill="#0B0B0B" d="M85,140v2h22v-2H85z M85,149h22v-2H85V149z M85,156h22v-2H85V156z"/>
<path id="ic_x5F_close" fill="#0B0B0B" d="M125.646,151l8.354,8.354L132.354,161L124,152.646L115.646,161L114,159.354l8.354-8.354
	L114,142.646l1.646-1.646l8.354,8.354l8.354-8.354l1.646,1.646L125.646,151z"/>
<path fill="#0B0B0B" d="M158.357,142.288c-3.053-3.052-8.021-3.052-11.069,0c-3.05,3.052-3.05,8.019,0,11.069
	c2.718,2.716,6.948,3.006,9.999,0.887c0.064,0.304,0.212,0.593,0.445,0.828l4.441,4.443c0.646,0.646,1.693,0.646,2.342,0
	c0.646-0.646,0.646-1.693,0-2.343l-4.443-4.44c-0.234-0.234-0.525-0.381-0.829-0.444
	C161.366,149.236,161.074,145.007,158.357,142.288z M156.954,151.955c-2.278,2.277-5.983,2.277-8.263,0
	c-2.277-2.279-2.277-5.984,0-8.264c2.274-2.277,5.98-2.277,8.263,0C159.232,145.971,159.232,149.676,156.954,151.955z"/>
<g>
	<g>
		<defs>
			<rect id="SVGID_19_" x="65" y="160" width="16" height="16"/>
		</defs>
		<clipPath id="SVGID_20_">
			<use xlink:href="#SVGID_19_"  overflow="visible"/>
		</clipPath>
		<path clip-path="url(#SVGID_20_)" fill="#0B0B0B" d="M76.189,164.852c0.034,0.117-0.107,0.141-0.157,0.114
			c-0.028-0.015-0.042,0.019-0.063,0.028c-0.001,0-0.002,0-0.003,0.001c-0.015,0-0.03-0.003-0.04-0.006
			c-0.025-0.007-0.13-0.009-0.169-0.024l0,0c-0.009-0.004-0.141-0.055-0.15-0.051c-0.043,0.012-0.092-0.018-0.131,0.014
			c-0.023,0.018-0.052,0.026-0.074,0.045c-0.032,0.025-0.033,0.025-0.033,0.033c-0.001,0-0.001,0.001-0.001,0.002
			c-0.001,0.008-0.001,0.016-0.012,0.02c-0.013,0.007-0.032,0.01-0.042,0.01c-0.028,0-0.057,0.005-0.085,0.001
			c-0.025-0.002-0.051,0.017-0.076,0.004l0,0c-0.048-0.021-0.088-0.053-0.118-0.095l-0.029-0.042l0,0
			c-0.002-0.003-0.003-0.007-0.001-0.011c0.003-0.004,0.008-0.008,0.019,0.002l0,0c0.002,0.002,0.004,0.002,0.006,0.002
			c0.002-0.002,0.003-0.004,0.003-0.006c-0.006-0.024-0.017-0.063-0.008-0.086l0,0c0.005-0.016,0.025-0.012,0.03-0.026
			c0.006-0.017-0.004-0.032-0.005-0.05c-0.001-0.008,0.008-0.078,0.008-0.08h0.001c0.014-0.006,0.02-0.016,0.022-0.027
			c0.008-0.029,0.021-0.061,0.041-0.085c0.006-0.007,0.011-0.022,0.025-0.063c0.005-0.016,0.007-0.02,0.029-0.024
			c0.028-0.009,0.058-0.011,0.087-0.007c0.016,0.002,0.034,0.005,0.057,0.011c0.002,0,0.003,0.002,0.004,0.004l0,0
			c0.002,0.002,0.001,0.005-0.002,0.006c-0.006,0.004-0.01,0.013-0.009,0.019c0.002,0.01,0.009,0.016,0.018,0.016
			c0.01,0,0.02-0.004,0.027-0.008c0.015-0.008,0.02-0.01,0.031-0.002c0.009,0.007,0.014,0.018,0.013,0.027
			c-0.004,0.024-0.035,0.023-0.035,0.043c0,0.008,0.005,0.016,0.013,0.018c0.036,0.011,0.063,0.037,0.074,0.07
			c0,0,0.001,0.002,0.001,0.004c0.002,0.002,0.009,0.012,0.027,0.01c0.008-0.001,0.08-0.069,0.083-0.074l0,0
			c0.005-0.012-0.011-0.016-0.021-0.021c-0.025-0.014-0.042-0.039-0.044-0.067c-0.003-0.028,0.01-0.058,0.033-0.074
			c0.001,0,0.001,0,0.001-0.001l0.132-0.076l0,0c0.002,0,0.005-0.002,0.008-0.002l0,0c0.009-0.001,0.066-0.035,0.087-0.037
			c0.006-0.002,0.021,0.014,0.016,0.025c-0.002,0.007-0.009,0.02-0.024,0.027c-0.018,0.01-0.062,0.033-0.06,0.053
			c0.003,0.025,0.033,0.018,0.049,0.027c0.012,0.006,0.008,0.012,0.005,0.022l0,0c-0.009,0.031-0.022,0.06-0.041,0.086
			c-0.001,0.001-0.002,0.002-0.002,0.004c0.004,0.021,0.004,0.021,0.072,0.048c0.03,0.012,0.065-0.004,0.095,0.014
			c0.066,0.041,0.116,0.105,0.191,0.134C76.087,164.754,76.171,164.789,76.189,164.852 M81,168c0,4.418-3.582,8-8,8s-8-3.582-8-8
			s3.582-8,8-8S81,163.582,81,168 M70.644,162.604c0.004,0.006,0.054,0.008,0.059,0.018c0.007,0.014-0.02,0.025-0.014,0.035
			c0.001,0.004,0.004,0.006,0.007,0.006c0.008,0.002-0.025,0.035-0.03,0.042c-0.008,0.012,0.002,0.042,0.02,0.042
			c0.018-0.001,0.029-0.012,0.045-0.031c0,0,0.045-0.025,0.076-0.051c0.03-0.023,0.09-0.031,0.113-0.074
			c0.012-0.021,0.034-0.037,0.052-0.041c0.008-0.002,0.016,0.002,0.019,0.01c0.002,0.012,0.142-0.051,0.137-0.076
			c-0.004-0.021,0.009-0.023,0.023-0.018c0.01,0.004,0.019,0.001,0.025-0.005c0.042-0.034,0.105-0.077,0.158-0.063
			c0.013,0.004,0.026,0.002,0.038-0.006c0.053-0.029,0.059-0.016,0.046-0.01c-0.014,0.006-0.052,0.02-0.044,0.031
			c0.002,0.003,0.006,0.004,0.009,0.003c0.022-0.009,0.046-0.015,0.071-0.015c0.034,0,0.083-0.006,0.128-0.029
			c0.002-0.001,0.004-0.002,0.006-0.003l0.001-0.001c0.105-0.053,0.149-0.088,0.171-0.073c0.007,0.005,0.011,0.013,0.01,0.021l0,0
			c0.018,0.014,0.036,0.002,0.057-0.004c0,0,0.017,0.018,0.081,0.017c-0.015,0.039,0.651-0.104,1.074-0.455
			c0.114-0.095,0.242-0.183,0.369-0.263c-0.117-0.006-0.233-0.01-0.352-0.01c-0.458,0-0.903,0.049-1.333,0.141
			c0.031,0.005,0.028,0.042,0.009,0.048c-0.052,0.019-0.111,0.021-0.154,0.058c-0.004,0.004-0.005,0.008-0.002,0.014
			c0.002,0.004,0.008,0.006,0.013,0.004c0.009-0.002,0.025-0.008,0.063-0.021c0.007-0.003,0.015,0.002,0.014,0.01
			c0,0.002-0.002,0.004-0.004,0.006c-0.019,0.009-0.04,0.012-0.058,0.021c-0.003,0.001-0.006,0.006-0.005,0.011
			c0.002,0.008-0.007,0.027-0.001,0.033l0,0c-0.001,0.001-0.185,0.127-0.254,0.131l0,0c-0.083,0.004-0.16,0.037-0.183,0.057
			s-0.048,0.035-0.075,0.049c-0.056,0.027-0.106,0.074-0.139,0.109c-0.017,0.021,0.013,0.025,0.036,0.035
			c0,0,0.016,0.004-0.009,0.008c-0.092,0.014-0.171,0.117-0.195,0.151c-0.005,0.007-0.005,0.015,0,0.022l0,0
			c-0.042,0.041-0.046,0.047-0.078,0.108C70.64,162.596,70.641,162.602,70.644,162.604 M72.726,163.971c0-0.002,0-0.004,0.002-0.004
			c0.001,0,0.003,0,0.005,0.001c0.001,0.001,0.002,0.001,0.003,0.003c0.006,0.004,0.009,0.004,0.011,0.002
			c0.013-0.009,0.026-0.018,0.04-0.023c0.007-0.006,0.012-0.014,0.016-0.028c0.001-0.005,0.006-0.028-0.026-0.047c0,0,0,0,0-0.001
			c-0.003-0.001-0.062-0.032-0.078-0.021c-0.011,0.006-0.011,0.006-0.032-0.006c-0.001-0.003,0-0.006,0.003-0.008
			c0.023-0.02,0.023-0.02,0.022-0.023c0-0.01-0.006-0.019-0.013-0.025c-0.006-0.006-0.006-0.016-0.001-0.023l0,0
			c0.004-0.006-0.019-0.057-0.019-0.057c-0.001-0.002-0.002-0.002-0.005-0.002c-0.01,0-0.02,0-0.03,0
			c-0.001,0-0.003,0.001-0.005,0.001c0,0.001,0,0,0,0c0-0.001-0.001-0.002,0-0.003c0.003-0.014-0.009-0.021-0.01-0.031
			c-0.001-0.012,0.002-0.023,0.003-0.033c0.001-0.012,0-0.021-0.003-0.033c-0.012-0.041-0.01-0.084,0.004-0.121
			c0.006-0.018,0.014-0.032,0.024-0.047c0.023-0.03-0.081-0.026-0.101-0.025c-0.001,0-0.003-0.001-0.004-0.002s-0.001-0.003,0-0.005
			c0.005-0.009,0.006-0.019,0.013-0.023c0.01-0.01,0.022-0.012,0.034-0.021c0.024-0.014,0.004-0.022-0.005-0.024
			c-0.021-0.006-0.043-0.009-0.064-0.009c-0.008,0-0.017,0.001-0.025,0.005c-0.005,0.002-0.012,0.008-0.018,0.019
			c-0.013,0.018-0.028,0.033-0.046,0.047c-0.001,0.002-0.002,0.002-0.003,0.002c-0.005,0.005-0.011,0.006-0.017,0.004
			c-0.003-0.002-0.007-0.002-0.01,0c0,0-0.001,0-0.002,0c-0.006,0.004-0.01,0.008-0.014,0.014s-0.003,0.016,0.002,0.02
			c0.005,0.006,0.014,0.009,0.021,0.004l0,0c0.001,0.002,0.001,0.006,0,0.009c-0.004,0.008-0.005,0.019-0.009,0.024
			c0,0.002-0.001,0.002-0.002,0.002c-0.001,0.002-0.003,0-0.004-0.002c-0.004-0.006-0.006-0.006-0.009-0.006h-0.001
			c-0.013,0.004-0.021,0.032-0.021,0.041c0,0.002,0.001,0.004,0.002,0.006c0.016,0.019,0.017,0.043,0.003,0.063l0,0
			c-0.001,0.002-0.003,0.004-0.004,0.006c-0.002,0.005,0,0.011,0.003,0.013c0.004,0.002,0.009,0.002,0.012-0.002
			c0.004-0.005,0.008-0.01,0.015-0.017c0.005-0.008,0.007-0.011,0.016-0.015c0.007-0.002,0.014-0.006,0.021-0.008
			c0.002,0,0.005,0,0.007,0.002c0.002,0.002,0.003,0.004,0.003,0.008c0,0.016,0.004,0.031-0.011,0.043
			c-0.009,0.009-0.016,0.015-0.021,0.019s-0.006,0.013-0.003,0.019c0.003,0.007,0.01,0.01,0.017,0.008h0.001
			c0,0.001,0.001,0.002,0.001,0.002c0.004,0.02,0.005,0.02,0.029,0.004c0.001,0,0.002,0,0.003,0l0,0
			c0.003,0.008,0.009,0.012,0.016,0.016c0.009,0.004,0.016,0.014,0.018,0.023c0,0,0,0,0,0.002c0,0,0,0,0,0.001
			c0.008,0.024,0.001,0.054-0.018,0.071c-0.019,0.019-0.047,0.025-0.072,0.018l0,0c-0.004-0.001-0.009,0-0.011,0.004
			c-0.003,0.004-0.002,0.01,0,0.012c0.002,0.004,0.005,0.008,0.005,0.012c0,0.017-0.021,0.011-0.027,0.021l0,0
			c0,0.001,0,0.002-0.001,0.003c0,0.002,0.001,0.004,0.002,0.006s0.003,0.002,0.005,0.002c0.009-0.002,0.017-0.011,0.026-0.011
			c0.018-0.002,0.004,0.044-0.001,0.052c-0.007,0.006-0.053,0.022-0.067,0.024c-0.009,0.002-0.016,0.002-0.019,0.006
			c-0.003,0.003-0.005,0.021,0.008,0.028c0.02,0.009,0.038-0.008,0.057-0.003l0,0c0.019,0.005,0.035,0.016,0.048,0.028
			c0.001,0,0.002,0.002,0.004,0.002c0.006,0.002,0.013,0.002,0.02,0c0.001,0,0.003-0.002,0.004-0.002
			c0.005-0.006,0.011-0.006,0.016-0.008c0.004,0,0.008,0.004,0.009,0.008s0,0.008-0.003,0.01c-0.014,0.012-0.028,0.021-0.048,0.02
			c-0.011-0.001-0.021-0.001-0.032,0c-0.033,0.003-0.063,0.02-0.087,0.042c-0.008,0.009-0.016,0.017-0.023,0.022
			c-0.004,0.005-0.004,0.012-0.001,0.017c0.003,0.004,0.01,0.006,0.015,0.002c0.003-0.002,0.007-0.004,0.011-0.007
			c0.014-0.009,0.04-0.02,0.053,0.008v0.001c0.002,0,0.004,0,0.006-0.002c0.019-0.014,0.028-0.04,0.056-0.043
			c0.02-0.001,0.034,0.019,0.054,0.015c0.022-0.004,0.041-0.021,0.065-0.021c0.009,0.001,0.034,0.007,0.036,0.009
			c0.007,0.005,0.007,0.005,0.043,0.005c0.016,0,0.027,0.014,0.041,0.016c0.018,0.003,0.034-0.008,0.051-0.006l0,0l0,0
			c0,0,0.053-0.01,0.052-0.031c0-0.001,0-0.002,0-0.002s0,0-0.001,0C72.741,164.01,72.729,163.992,72.726,163.971 M72.266,163.773
			c0.016-0.008,0.002-0.024,0.006-0.037c0.011-0.031,0.018-0.032,0.031-0.034c0.012-0.002,0.024-0.003,0.028-0.011
			c0.02-0.029-0.051-0.114-0.096-0.104c-0.046,0.014-0.083,0.08-0.099,0.079c-0.02-0.001-0.028-0.002-0.042,0.009
			c-0.01,0.008-0.012,0.021-0.019,0.029c-0.009,0.012-0.021,0.021-0.029,0.031c-0.008,0.01-0.011,0.018,0,0.027
			c0.008,0.008,0.012,0.012-0.011,0.041c-0.019,0.022-0.05,0.036-0.063,0.066c-0.005,0.011-0.004,0.031-0.002,0.041
			c0.006,0.031,0.055,0.02,0.084,0.006c0.026-0.011,0.051-0.027,0.08-0.034c0-0.001,0-0.001,0-0.001
			c0.039-0.011,0.073,0,0.084-0.015c0.011-0.015,0.031-0.041,0.04-0.063C72.263,163.797,72.252,163.781,72.266,163.773
			 M68.843,170.339c-0.019-0.151-0.502-0.706-0.64-0.81c-0.108-0.081-0.187-0.082-0.187-0.082c0.006-0.067-0.02-0.135-0.07-0.18
			c-0.02-0.019-0.034-0.041-0.048-0.063c-0.019-0.03-0.052-0.05-0.088-0.05c-0.037,0-0.07,0.02-0.089,0.05l0,0
			c0.033-0.108,0.034-0.113-0.052-0.22c-0.046-0.057-0.052-0.051,0.004-0.154c0.008-0.143-0.271-0.596-0.517-0.873
			c-0.008-0.01-0.02-0.014-0.035-0.012c-0.025-0.022-0.147-0.471-0.174-0.576c-0.001-0.005,0-0.01,0.003-0.014
			c0.021-0.026,0.03-0.062,0.023-0.094c-0.005-0.027-0.016-0.06-0.018-0.087c-0.003-0.051-0.051-0.094-0.06-0.088
			c-0.013,0.011-0.028,0.013-0.04,0.006c-0.013-0.005-0.022-0.016-0.025-0.032c-0.01-0.056-0.059-0.095-0.115-0.095
			c-0.022,0-0.027-0.006-0.03-0.021C66.63,167.289,66.6,167.641,66.6,168c0,1.707,0.667,3.257,1.754,4.402
			c-0.049-0.063-0.103-0.178-0.103-0.193c-0.001-0.045-0.011-0.089-0.027-0.131c-0.014-0.035-0.03-0.069-0.046-0.104
			c-0.054-0.117,0.188-0.138,0.255-0.248l0,0c0.005-0.01,0.046-0.016,0.095,0.021c0.039,0.026,0.095-0.036,0.09-0.06
			c-0.016-0.071-0.017-0.084-0.007-0.148c0.015-0.111-0.016-0.389-0.029-0.426c-0.044-0.127-0.054-0.19-0.054-0.221
			c0-0.022,0.06-0.039,0.071-0.078c0.022-0.074,0.151-0.215,0.191-0.282C68.824,170.473,68.852,170.406,68.843,170.339
			 M70.075,162.432c-0.011-0.018-0.032-0.024-0.052-0.019c-0.014,0.005-0.04,0.013-0.048,0.001c-0.002-0.004-0.002-0.01,0-0.014
			c0.006-0.01,0.021-0.03,0.023-0.039c0.001-0.008,0.005-0.016,0.011-0.021c0.002-0.002,0.005-0.004,0.008-0.006
			c-0.625,0.33-1.189,0.761-1.671,1.271c0.002,0,0.004,0,0.006,0c0.076,0.021,0.07,0.004,0.135-0.074
			c0.038-0.045,0.106-0.063,0.145-0.076c0.038-0.014,0.101-0.02,0.101-0.02c0.037-0.006,0.142,0.018,0.172-0.008
			c0.025-0.021-0.007-0.027,0.008-0.051c0.014-0.021,0.026-0.044,0.036-0.068c0.008-0.021,0.034-0.025,0.052-0.037
			c0.032-0.021,0.001-0.021-0.005-0.029c-0.005-0.008,0-0.037,0.012-0.039l0,0c0.017,0.016,0.04,0.021,0.062,0.018
			c0.019-0.006,0.026-0.012,0.032-0.022c0.003-0.009,0.011-0.015,0.02-0.019l0,0c0.052-0.125-0.179-0.055-0.179-0.055
			c-0.009-0.018,0.122-0.061,0.143-0.066v0.002l0,0c0.012,0.002,0.023,0,0.034-0.004c0.063-0.022,0.133,0.008,0.158,0.068v0.001
			c0.007,0.017,0.021,0.028,0.038,0.034c0.021,0.006,0.041,0.012,0.063,0.003c0.112-0.042,0.145-0.006,0.238-0.048c0,0,0,0,0.001,0
			c0.122-0.055,0.127-0.325,0.293-0.475c0.016-0.015,0.034-0.027,0.052-0.039c0.03-0.021,0.05-0.049,0.071-0.076
			c0.01-0.014,0.021-0.027,0.033-0.039C70.083,162.473,70.085,162.449,70.075,162.432 M79.174,166.313
			c0.004,0.015,0.009,0.028,0.013,0.043c-0.522-1.973-1.962-3.569-3.835-4.311c0.013,0.01,0.02,0.027,0.018,0.044
			c-0.006,0.032-0.043,0.041-0.046,0.048c-0.009,0.023,0.052,0.055,0.069,0.072c0.01,0.01,0.01,0.025,0.001,0.035
			c-0.001,0-0.001,0-0.001,0c-0.03-0.008-0.062,0.001-0.084,0.021c-0.022,0.02-0.055,0.032-0.073,0.039
			c-0.011,0.004-0.021,0.01-0.03,0.02l0,0c-0.011-0.004-0.021-0.004-0.031,0c-0.042,0.016-0.066,0.096-0.058,0.125
			c0.003,0.011,0.001,0.023-0.007,0.033c-0.01,0.012-0.025,0.017-0.041,0.012c-0.009-0.003-0.033,0.018-0.021,0.027
			c0.014,0.01-0.006,0.018-0.02,0.026c-0.008,0.007-0.017,0.009-0.025,0.004c-0.051-0.015-0.048-0.026-0.063,0.013
			c-0.008,0.02-0.018,0.037-0.03,0.053c-0.008,0.01-0.007,0.023,0.002,0.033c0.075,0.072-0.033,0.061-0.071,0.043
			c-0.035-0.017-0.056,0.045,0.009,0.045c0.019,0,0.035,0.008,0.047,0.021c0-0.001,0,0,0,0c0.034,0.037-0.043,0.024-0.091,0.009
			c-0.04-0.016-0.078-0.035-0.112-0.063c-0.021-0.017-0.029-0.045-0.02-0.07c0.009-0.024,0.033-0.043,0.061-0.042
			c0.039,0.001,0.072-0.027,0.077-0.066s-0.021-0.074-0.06-0.082c-0.095-0.021-0.199-0.008-0.286-0.049
			c-0.075-0.035-0.138-0.027-0.157-0.054c-0.008-0.012-0.012-0.024-0.01-0.039l0,0c-0.04-0.008-0.066-0.013-0.083-0.017
			c-0.018-0.004-0.068-0.004-0.138,0.018c-0.15,0.049-0.293,0.188-0.293,0.188l0,0c0,0-0.029,0.049-0.057,0.081
			c-0.025,0.027-0.045,0.063-0.072,0.09c-0.012,0.01-0.02,0.023-0.022,0.039l0,0l0,0c-0.015,0.004-0.026,0.016-0.03,0.029
			c-0.019,0.065-0.069,0.162-0.345,0.278l0,0c-0.081,0.033-0.132,0.115-0.128,0.203c0.005,0.087,0.063,0.162,0.147,0.188
			c0.104,0.031,0.128-0.084,0.245-0.049c0.045,0.015,0.08,0.047,0.096,0.09c0.02,0.055,0.046,0.086,0.048,0.154
			c0.023,0.023,0.093,0.075,0.101,0.04c0.02-0.083,0.104-0.028,0.141-0.099c0.031-0.059-0.016-0.121,0.007-0.182
			c0,0,0,0,0.001-0.002c0.028-0.069,0.036-0.146,0.021-0.221c-0.007-0.035,0.002-0.087,0.019-0.188
			c0.007-0.039,0.083-0.061,0.102-0.09c0.032-0.049-0.021-0.145,0.059-0.162c0.039-0.008,0.11,0.011,0.12,0.052
			c0.003,0.015,0,0.03-0.01,0.042c-0.022,0.027-0.032,0.066-0.053,0.099c-0.04,0.063-0.049,0.14-0.023,0.209
			c0.022,0.062,0.059,0.114,0.115,0.119c0.017,0.001,0.033-0.004,0.047-0.012l0,0c0-0.001,0.001-0.001,0.001-0.001l0,0l0.082-0.028
			c0.067-0.022,0.141-0.028,0.211-0.014l0,0c0.007,0.002,0.012,0.007,0.014,0.014c0.002,0.006,0,0.015-0.006,0.019
			c-0.084,0.076-0.101,0.024-0.189,0.041c-0.031,0.006-0.055,0.031-0.059,0.063c-0.003,0.027,0.01,0.055,0.033,0.068
			c0.005,0.003,0.008,0.008,0.007,0.014l0,0c-0.002,0.027-0.019,0.051-0.044,0.063c-0.019,0.008-0.039,0.008-0.058-0.002
			c-0.014-0.006-0.03-0.004-0.043,0.004c-0.025,0.019-0.017,0.029-0.021,0.053c-0.008,0.035-0.006,0.072,0.006,0.107l0,0
			c0.02,0.057-0.085,0.157-0.128,0.149c-0.086-0.017-0.176-0.002-0.253,0.039c-0.036,0.021-0.081,0.014-0.112-0.015l0,0
			c-0.021-0.021-0.001-0.027-0.026-0.043c-0.006-0.004-0.141,0.053-0.146,0.055s-0.013,0.002-0.019-0.002s-0.009-0.01-0.01-0.016
			c0,0,0,0,0-0.002c-0.005-0.037-0.18-0.033-0.043-0.185c0-0.001,0-0.001,0-0.002c0.015-0.017,0.021-0.036,0.018-0.058
			c-0.006-0.035,0.002-0.067-0.03-0.082c-0.001,0-0.001,0-0.001,0.002c-0.071,0.074-0.105,0.178-0.092,0.279
			c0.009,0.113-0.046,0.096-0.088,0.094c-0.018,0-0.034,0.006-0.046,0.021l0,0c-0.017,0-0.04,0-0.08,0.004
			c-0.017,0.002-0.032,0.011-0.043,0.024c-0.001,0-0.001,0.003-0.001,0.005c0.001,0.01-0.005,0.019-0.015,0.021
			c-0.03,0.006-0.059,0.021-0.082,0.043c-0.054,0.049-0.082,0.069-0.139,0.103c-0.04,0.021-0.075,0.051-0.105,0.085
			c-0.012,0.015-0.039,0.029-0.102,0.064c-0.006,0.004-0.01,0.01-0.011,0.017c-0.003,0.014-0.015,0.022-0.028,0.024
			c-0.056,0.01-0.072-0.004-0.104-0.024c-0.017-0.013-0.029,0.012-0.025,0.024v0.002c0.004,0.015,0.001,0.028-0.007,0.041
			c-0.009,0.012-0.022,0.02-0.037,0.021c-0.039,0.002-0.077-0.007-0.112-0.022c-0.003-0.002-0.007-0.002-0.01-0.002
			c-0.056,0.019-0.089,0.086-0.075,0.086c0.097,0.012,0.095,0.027,0.134,0.053c0.046,0.029,0.024,0.119,0.094,0.127h0.001
			c0.009,0,0.016,0.072,0.018,0.08s-0.001,0.014-0.007,0.018l0,0c-0.021,0.014-0.035,0.036-0.038,0.061
			c-0.006,0.047-0.001,0.099-0.033,0.139c-0.013,0.017-0.043,0.048-0.08,0.033c-0.038-0.014-0.079-0.021-0.12-0.023
			c-0.169-0.008-0.268-0.044-0.318-0.068c-0.037-0.019-0.081-0.011-0.107,0.021l0,0c-0.012,0-0.026,0.001-0.04,0.002
			c-0.025,0.002-0.042,0.024-0.037,0.049c0.013,0.056,0.013,0.111-0.051,0.274c-0.002,0.008-0.006,0.017-0.009,0.021
			c-0.021,0.039-0.096,0.115-0.078,0.135c0.002,0.002,0.005,0.004,0.008,0.004c0.016,0,0.03,0.011,0.035,0.025
			c0.005,0.012,0.006,0.025,0.002,0.038c-0.005,0.021-0.028,0.097-0.019,0.114c0.005,0.011,0.015,0.019,0.026,0.021
			c0.016,0.006,0.027,0.018,0.042,0.026c0.01,0.006,0.044-0.011,0.065-0.019c0.015-0.006,0.024-0.012,0.058,0.027
			c0.031,0.035,0.007,0.117,0.072,0.119c0.018,0,0.028-0.018,0.032-0.027c0.005-0.012,0.005-0.012,0.131-0.039
			c0.056-0.013,0.11,0.022,0.166,0.006c0.043-0.014,0.045-0.069,0.089-0.082c0.029-0.008,0.06,0.009,0.089-0.008
			c0.015-0.008,0.001-0.055,0.018-0.07l0,0c0.026-0.021,0.037-0.057,0.026-0.09c-0.005-0.016-0.004-0.021-0.001-0.031
			c0.003-0.014,0.044-0.037,0.067-0.092c0.002-0.006,0.004-0.01,0.008-0.012c0.077-0.07,0.182-0.088,0.269-0.138
			c0.077-0.044,0.023-0.163,0.114-0.198c0.083-0.033,0.146,0.082,0.233,0.033c0.091-0.053,0.205-0.117,0.229-0.119
			c0.024,0,0.047,0.006,0.066,0.014c0.028,0.015,0.053,0.035,0.069,0.063c0.083,0.133,0.242,0.188,0.338,0.31
			c0.015,0.02,0.088,0.063,0.116,0.09c0.046,0.041,0.02-0.014,0.059,0.055c0.001,0,0.001,0.001,0.001,0.001
			c0.02,0.03,0.054,0.083,0.021,0.097c-0.022,0.01-0.022,0.016-0.022,0.023c0.001,0.018-0.014,0.033-0.004,0.051
			c0.003,0.006,0.015,0.021,0.039,0.01c0.029-0.016,0.019-0.021,0.029-0.043c0.028-0.057,0.027-0.06,0.027-0.06
			c0.01-0.007,0.027-0.001,0.03-0.019c0.008-0.039-0.02-0.053-0.038-0.062c-0.012-0.006-0.033-0.017-0.021-0.049
			c0.001-0.003,0.001-0.003,0.001-0.005c0.001,0,0.001,0,0.001,0c0.014-0.028,0.048-0.043,0.078-0.029
			c0.022,0.009,0.039,0.014,0.047,0.036c0.002,0.004,0.003,0.008,0.003,0.012c-0.001,0.011-0.001,0.021,0.003,0.022
			c0.006,0.006,0.027,0,0.033-0.01c0.003-0.006,0.007-0.026,0.007-0.033l0,0l0,0c0-0.002-0.001-0.002-0.001-0.004
			c-0.055-0.084-0.155-0.092-0.233-0.137c-0.009-0.004-0.014-0.014-0.015-0.023c-0.002-0.019-0.019-0.032-0.038-0.032
			c-0.048,0-0.093-0.022-0.12-0.063l-0.164-0.238c-0.007-0.01-0.013-0.02-0.019-0.03c-0.011-0.019-0.002-0.043,0.019-0.052
			c0.001,0,0.002,0,0.004,0c0.031-0.01,0.065,0.002,0.083,0.029c0.01,0.014,0.019,0.029,0.035,0.029
			c0.02-0.002,0.039,0.004,0.056,0.016l0.281,0.205l0,0c0,0,0.023,0.006,0.06,0.029c0.008,0.006,0.017,0.008,0.026,0.008
			c0.014-0.001,0.027,0.004,0.038,0.012c0.043,0.035,0.07,0.084,0.077,0.14c0.003,0.024,0.005,0.047,0.006,0.063l0,0
			c0.001,0.021,0.012,0.039,0.028,0.051c0.008,0.006,0.018,0.013,0.022,0.019c0.007,0.007,0.009,0.009,0.021,0.031
			c0.005,0.009,0.038,0.038,0.041,0.04v0.001c0.002,0.001,0.005,0.003,0.011,0.003h0.001c0.011,0.001,0.02-0.004,0.03-0.003
			c0.03,0.002,0.075,0.04,0.11,0.022c0.003-0.002,0.04-0.022,0.04-0.022l0,0c0.085-0.04-0.02-0.079-0.022-0.118
			c-0.002-0.014,0.004-0.023,0.013-0.031c0.009-0.006,0.021-0.007,0.031-0.002c0.007,0.004,0.015,0.002,0.021-0.002l0,0
			c0.007-0.004,0.012-0.012,0.013-0.02c0.01-0.045,0.056-0.06,0.101-0.06c0.037,0,0.074,0.011,0.107,0.028
			c0.014,0.007,0.028,0.011,0.044,0.011h0.001c0.029-0.002,0.057-0.012,0.08-0.028c0.012-0.01-0.014,0.021-0.069,0.043
			c-0.001,0-0.001,0-0.001,0c-0.023,0.01-0.036,0.033-0.031,0.059c0.012,0.049,0.113,0.098,0.047,0.16
			c-0.001,0.001-0.002,0.002-0.002,0.002l0,0c0.037,0.016,0.068,0.043,0.089,0.076c0.067,0.113,0.294,0.148,0.313,0.102
			c0,0,0,0,0.001-0.001c0.01-0.026,0.038-0.038,0.064-0.028c0.052,0.021,0.098,0.059,0.157,0.053
			c0.034-0.004,0.059-0.018,0.078-0.033c0.056-0.049,0.126-0.077,0.199-0.083l0,0c0,0,0.001,0,0.001,0.001
			c0.001,0.001,0.001,0.001,0.001,0.001c-0.037,0.217,0.204,0.457-0.033,0.653c-0.02,0.016-0.053,0.021-0.076,0.026
			c-0.215,0.038-0.432,0.005-0.646,0.019c-0.124,0.009-0.143-0.035-0.181-0.036h-0.001h-0.001c-0.042,0.002-0.05,0.002-0.112-0.015
			c-0.039-0.008-0.143-0.156-0.284-0.041c-0.041,0.032-0.065,0.075-0.063,0.101c0.018,0.354-0.418,0.094-0.45,0.055
			c-0.05-0.06-0.116-0.103-0.19-0.124c-0.082-0.023-0.181-0.056-0.243-0.089c-0.047-0.024-0.104-0.039-0.128-0.041
			c-0.009-0.001-0.014-0.044,0.014-0.069c0.07-0.072,0.092-0.101,0.069-0.139c-0.059-0.1-0.02-0.091-0.071-0.156
			c-0.001,0-0.001,0-0.001,0c-0.019-0.025-0.047-0.037-0.077-0.035c-0.879,0.057-1.069,0.082-1.243,0.164
			c-0.015,0.008-0.046,0.022-0.096,0.002c-0.038-0.019-0.08-0.021-0.119-0.006l0,0c-0.057-0.037-0.131-0.033-0.185,0.01
			l-0.287,0.231c-0.029,0.022-0.054,0.054-0.074,0.084c-0.052,0.082-0.048,0.144-0.047,0.172c0.005,0.093-0.258,0.263-0.396,0.245
			l0,0l0,0c-0.063,0.025-0.118,0.049-0.437,0.492c-0.175,0.244-0.175,0.244-0.14,0.313c0.019,0.037,0.058,0.11,0.029,0.313
			c-0.002,0.013-0.004,0.025-0.008,0.039c-0.001,0.007-0.003,0.013-0.005,0.02l-0.123,0.407c-0.035,0.113-0.012,0.237,0.061,0.332
			l0,0c0,0.001,0,0.001,0.001,0.002l0.027,0.05c0.004,0.01,0.008,0.019,0.012,0.026c0.026,0.06,0.063,0.394,0.162,0.544
			c0.015,0.023,0.033,0.045,0.053,0.064l0.311,0.306c0.055,0.054,0.163,0.091,0.238,0.104c0.222,0.043,0.457,0.045,0.675,0.127
			c0.01,0.004,0.025,0.01,0.036,0.01c0.252,0.018,0.459-0.192,0.703-0.211c0.058-0.004,0.174,0.033,0.204,0.205
			c0.022,0.127,0.219,0.088,0.311,0.061c0.042-0.014,0.087-0.01,0.128,0.007h0.001c0,0.001,0,0.001,0,0.001
			c0.003,0.028,0.027,0.049,0.055,0.047c0.001,0,0.002,0,0.003,0c0.016-0.003,0.031,0.006,0.04,0.019
			c0.05,0.077,0.04,0.126,0.032,0.163l0,0c0,0,0,0,0,0.002l-0.003,0.012c0,0.001,0,0.001,0,0.002
			c-0.002,0.009-0.004,0.02-0.005,0.027c-0.025,0.188-0.01,0.275-0.097,0.345c-0.01,0.008-0.017,0.017-0.021,0.028
			c0.094,0.191,0.3,0.291,0.3,0.291c0.029,0.031,0.207,0.336,0.226,0.472c0.028,0.205,0.028,0.166,0.034,0.175
			c0.09,0.146,0.011,0.219-0.044,0.246c-0.017,0.01-0.025,0.016-0.03,0.023c-0.008,0.017-0.018,0.033-0.028,0.048
			c-0.009,0.013-0.122,0.317-0.122,0.382v0.001c0.001,0.058,0.097,0.112,0.131,0.161l0.218,0.304
			c0.004,0.005,0.008,0.011,0.012,0.017c0.075,0.095-0.041,0.229,0.026,0.324c0.022,0.03,0.076,0.155,0.104,0.176
			c0.044,0.029,0.229,0.297,0.174,0.342c-0.006,0.006-0.005,0.019-0.003,0.025c0.017,0.047,0.24,0.123,0.323,0.088
			c0.123-0.053,0.381-0.094,0.485-0.093c0.146,0.001,0.844-0.5,0.789-0.673c-0.001-0.002-0.001-0.004-0.001-0.007l0,0
			c0.082-0.097,0.318-0.216,0.313-0.228c0,0,0,0-0.001,0c0.031-0.068,0.042-0.125,0.042-0.17c0.002-0.123,0.061-0.236,0.158-0.31
			c0.084-0.062,0.206-0.149,0.385-0.279c0.111-0.081,0.168-0.139,0.158-0.487c-0.009-0.318-0.065-0.568-0.085-0.623
			c-0.026-0.075-0.02-0.09,0.011-0.146c0.09-0.165,0.212-0.312,0.298-0.479c0.136-0.268,0.304-0.424,0.396-0.51
			c0.004-0.004,0.008-0.008,0.012-0.012c0.166-0.195,0.262-0.459,0.322-0.706c0.013-0.052,0.033-0.103,0.048-0.153
			c0.012-0.039,0.029-0.072,0.05-0.272c0.003-0.035-0.016-0.065-0.015-0.101c0.008-0.133-0.037-0.016-0.076,0.004
			c-0.1,0.047-0.046,0.029-0.089,0.059c-0.021,0.014-0.182,0.068-0.2,0.088c-0.023,0.021-0.044,0.044-0.077,0.049
			c-0.197,0.024-0.231,0.028-0.267-0.004c-0.033-0.029-0.054-0.068-0.063-0.111c-0.01-0.047-0.033-0.09-0.068-0.123
			c-0.188-0.176-0.559-0.291-0.646-0.769c-0.014-0.071-0.539-0.832-0.647-0.983c-0.012-0.019-0.016-0.039-0.011-0.061
			c0.001-0.001,0.001-0.001,0.001-0.001c0.021,0.054,0.102,0.146,0.151,0.197c0.015,0.015,0.034,0.021,0.051,0.009
			c0.02-0.016,0.007-0.036,0.011-0.105c0.001-0.021,0.03-0.021,0.033-0.002c0.007,0.043,0.028,0.084,0.06,0.113
			c0.07,0.067,0.155,0.192,0.211,0.28c0.034,0.054,0.081,0.098,0.137,0.129c0.08,0.045,0.104,0.119,0.161,0.294
			c0.067,0.207,0.31,0.257,0.399,0.443c0.075,0.158,0.096,0.338,0.192,0.486c0.001,0.002,0.001,0.002,0.002,0.004
			c0.013,0.017,0.033,0.023,0.054,0.021c0.146-0.035,0.316-0.22,0.358-0.251c0.089-0.069,0.153-0.121,0.2-0.161
			c0.064-0.054,0.109-0.127,0.128-0.208c0.017-0.068,0.121-0.13,0.152-0.13c0.082,0,0.046-0.106,0.08-0.154
			c0.036-0.051,0.039-0.106,0.081-0.151c0.014-0.015,0.029-0.025,0.047-0.033c0.001-0.002,0.003-0.004,0.003-0.006
			c0.011-0.053-0.023-0.103-0.022-0.154c0-0.014,0.013-0.023,0.026-0.021h0.001c0,0,0.001,0,0.001-0.002
			c0.029-0.166,0.085-0.306-0.062-0.375c-0.059-0.027-0.128,0.017-0.183-0.029c0-0.002-0.001-0.002-0.001-0.002
			c-0.029-0.024-0.069-0.035-0.108-0.027c-0.038,0.009-0.07,0.033-0.088,0.068l0,0c-0.016,0.031-0.045,0.054-0.078,0.058
			c-0.055,0.008-0.049,0.019-0.091,0.049l0,0c-0.089-0.046-0.145-0.051-0.458-0.519c-0.094-0.141,0.033-0.211,0.077-0.158h0.001l0,0
			c0.039,0.042,0.198,0.21,0.327,0.281c0.044,0.025,0.177,0.06,0.201,0.015c0.089-0.164,0.153-0.045,0.166-0.019
			c0.066,0.141,0.25,0.019,0.291,0.021c0.09,0.004,0.081-0.015,0.338-0.159c0.102-0.058,0.224-0.066,0.333-0.023
			C79.053,166.113,79.137,166.201,79.174,166.313 M73.982,165.561c0.003-0.022,0.021-0.041,0.025-0.063
			c0.002-0.011-0.002-0.015-0.011-0.017c-0.001,0-0.002,0-0.004,0c-0.006,0.002-0.011,0.004-0.017,0.006
			c-0.02,0.002-0.018-0.008-0.034,0.002c-0.009,0.006-0.017,0.013-0.026,0.016c-0.01,0.002-0.019-0.004-0.028-0.004
			c-0.013,0.002-0.021,0.016-0.035,0.016c-0.018-0.002-0.029-0.018-0.047-0.021c-0.011-0.002-0.018,0.011-0.028,0.01
			c-0.01-0.001-0.007-0.005-0.016-0.009c-0.014-0.004-0.029,0.045-0.026,0.05c0.004,0.007,0.011,0.009,0.015,0.009c0,0,0,0,0.001,0
			c0.007,0,0.013-0.006,0.021-0.006c0.021-0.001,0.086,0.045,0.109,0.055c0.007,0.004,0.016,0.004,0.022,0.008
			c0.013,0.009,0.022,0.021,0.036,0.027c0.005,0.002,0.013,0.006,0.023,0.004c0.008,0,0.02-0.004,0.032-0.043
			C74,165.583,73.98,165.574,73.982,165.561"/>
	</g>
</g>
<g>
	<g>
		<defs>
			<rect id="SVGID_21_" x="65" y="180" width="16" height="16"/>
		</defs>
		<clipPath id="SVGID_22_">
			<use xlink:href="#SVGID_21_"  overflow="visible"/>
		</clipPath>
		<path clip-path="url(#SVGID_22_)" fill="#FFFFFF" d="M76.189,184.852c0.034,0.117-0.107,0.141-0.157,0.114
			c-0.028-0.015-0.042,0.019-0.063,0.028c-0.001,0-0.002,0-0.003,0.001c-0.015,0-0.03-0.003-0.04-0.006
			c-0.025-0.007-0.13-0.009-0.169-0.024l0,0c-0.009-0.004-0.141-0.055-0.15-0.051c-0.043,0.012-0.092-0.018-0.131,0.014
			c-0.023,0.018-0.052,0.026-0.074,0.045c-0.032,0.025-0.033,0.025-0.033,0.033c-0.001,0-0.001,0.001-0.001,0.002
			c-0.001,0.008-0.001,0.016-0.012,0.02c-0.013,0.007-0.032,0.01-0.042,0.01c-0.028,0-0.057,0.005-0.085,0.001
			c-0.025-0.002-0.051,0.017-0.076,0.004l0,0c-0.048-0.021-0.088-0.053-0.118-0.095l-0.029-0.042l0,0
			c-0.002-0.003-0.003-0.007-0.001-0.011c0.003-0.004,0.008-0.008,0.019,0.002l0,0c0.002,0.002,0.004,0.002,0.006,0.002
			c0.002-0.002,0.003-0.004,0.003-0.006c-0.006-0.024-0.017-0.063-0.008-0.086l0,0c0.005-0.016,0.025-0.012,0.03-0.026
			c0.006-0.017-0.004-0.032-0.005-0.05c-0.001-0.008,0.008-0.078,0.008-0.08h0.001c0.014-0.006,0.02-0.016,0.022-0.027
			c0.008-0.029,0.021-0.061,0.041-0.085c0.006-0.007,0.011-0.022,0.025-0.063c0.005-0.016,0.007-0.02,0.029-0.024
			c0.028-0.009,0.058-0.011,0.087-0.007c0.016,0.002,0.034,0.005,0.057,0.011c0.002,0,0.003,0.002,0.004,0.004l0,0
			c0.002,0.002,0.001,0.005-0.002,0.006c-0.006,0.004-0.01,0.013-0.009,0.019c0.002,0.01,0.009,0.016,0.018,0.016
			c0.01,0,0.02-0.004,0.027-0.008c0.015-0.008,0.02-0.01,0.031-0.002c0.009,0.007,0.014,0.018,0.013,0.027
			c-0.004,0.024-0.035,0.023-0.035,0.043c0,0.008,0.005,0.016,0.013,0.018c0.036,0.011,0.063,0.037,0.074,0.07
			c0,0,0.001,0.002,0.001,0.004c0.002,0.002,0.009,0.012,0.027,0.01c0.008-0.001,0.08-0.069,0.083-0.074l0,0
			c0.005-0.012-0.011-0.016-0.021-0.021c-0.025-0.014-0.042-0.039-0.044-0.067c-0.003-0.028,0.01-0.058,0.033-0.074
			c0.001,0,0.001,0,0.001-0.001l0.132-0.076l0,0c0.002,0,0.005-0.002,0.008-0.002l0,0c0.009-0.001,0.066-0.035,0.087-0.037
			c0.006-0.002,0.021,0.014,0.016,0.025c-0.002,0.007-0.009,0.02-0.024,0.027c-0.018,0.01-0.062,0.033-0.06,0.053
			c0.003,0.025,0.033,0.018,0.049,0.027c0.012,0.006,0.008,0.012,0.005,0.022l0,0c-0.009,0.031-0.022,0.06-0.041,0.086
			c-0.001,0.001-0.002,0.002-0.002,0.004c0.004,0.021,0.004,0.021,0.072,0.048c0.03,0.012,0.065-0.004,0.095,0.014
			c0.066,0.041,0.116,0.105,0.191,0.134C76.087,184.754,76.171,184.789,76.189,184.852 M81,188c0,4.418-3.582,8-8,8s-8-3.582-8-8
			s3.582-8,8-8S81,183.582,81,188 M70.644,182.604c0.004,0.006,0.054,0.008,0.059,0.018c0.007,0.014-0.02,0.025-0.014,0.035
			c0.001,0.004,0.004,0.006,0.007,0.006c0.008,0.002-0.025,0.035-0.03,0.042c-0.008,0.012,0.002,0.042,0.02,0.042
			c0.018-0.001,0.029-0.012,0.045-0.031c0,0,0.045-0.025,0.076-0.051c0.03-0.023,0.09-0.031,0.113-0.074
			c0.012-0.021,0.034-0.037,0.052-0.041c0.008-0.002,0.016,0.002,0.019,0.01c0.002,0.012,0.142-0.051,0.137-0.076
			c-0.004-0.021,0.009-0.023,0.023-0.018c0.01,0.004,0.019,0.001,0.025-0.005c0.042-0.034,0.105-0.077,0.158-0.063
			c0.013,0.004,0.026,0.002,0.038-0.006c0.053-0.029,0.059-0.016,0.046-0.01c-0.014,0.006-0.052,0.02-0.044,0.031
			c0.002,0.003,0.006,0.004,0.009,0.003c0.022-0.009,0.046-0.015,0.071-0.015c0.034,0,0.083-0.006,0.128-0.029
			c0.002-0.001,0.004-0.002,0.006-0.003l0.001-0.001c0.105-0.053,0.149-0.088,0.171-0.073c0.007,0.005,0.011,0.013,0.01,0.021l0,0
			c0.018,0.014,0.036,0.002,0.057-0.004c0,0,0.017,0.018,0.081,0.017c-0.015,0.039,0.651-0.104,1.074-0.455
			c0.114-0.095,0.242-0.183,0.369-0.263c-0.117-0.006-0.233-0.01-0.352-0.01c-0.458,0-0.903,0.049-1.333,0.141
			c0.031,0.005,0.028,0.042,0.009,0.048c-0.052,0.019-0.111,0.021-0.154,0.058c-0.004,0.004-0.005,0.008-0.002,0.014
			c0.002,0.004,0.008,0.006,0.013,0.004c0.009-0.002,0.025-0.008,0.063-0.021c0.007-0.003,0.015,0.002,0.014,0.01
			c0,0.002-0.002,0.004-0.004,0.006c-0.019,0.009-0.04,0.012-0.058,0.021c-0.003,0.001-0.006,0.006-0.005,0.011
			c0.002,0.008-0.007,0.027-0.001,0.033l0,0c-0.001,0.001-0.185,0.127-0.254,0.131l0,0c-0.083,0.004-0.16,0.037-0.183,0.057
			s-0.048,0.035-0.075,0.049c-0.056,0.027-0.106,0.074-0.139,0.109c-0.017,0.021,0.013,0.025,0.036,0.035
			c0,0,0.016,0.004-0.009,0.008c-0.092,0.014-0.171,0.117-0.195,0.151c-0.005,0.007-0.005,0.015,0,0.022l0,0
			c-0.042,0.041-0.046,0.047-0.078,0.108C70.64,182.596,70.641,182.602,70.644,182.604 M72.726,183.971c0-0.002,0-0.004,0.002-0.004
			c0.001,0,0.003,0,0.005,0.001c0.001,0.001,0.002,0.001,0.003,0.003c0.006,0.004,0.009,0.004,0.011,0.002
			c0.013-0.009,0.026-0.018,0.04-0.023c0.007-0.006,0.012-0.014,0.016-0.028c0.001-0.005,0.006-0.028-0.026-0.047c0,0,0,0,0-0.001
			c-0.003-0.001-0.062-0.032-0.078-0.021c-0.011,0.006-0.011,0.006-0.032-0.006c-0.001-0.003,0-0.006,0.003-0.008
			c0.023-0.02,0.023-0.02,0.022-0.023c0-0.01-0.006-0.019-0.013-0.025c-0.006-0.006-0.006-0.016-0.001-0.023l0,0
			c0.004-0.006-0.019-0.057-0.019-0.057c-0.001-0.002-0.002-0.002-0.005-0.002c-0.01,0-0.02,0-0.03,0
			c-0.001,0-0.003,0.001-0.005,0.001c0,0.001,0,0,0,0c0-0.001-0.001-0.002,0-0.003c0.003-0.014-0.009-0.021-0.01-0.031
			c-0.001-0.012,0.002-0.023,0.003-0.033c0.001-0.012,0-0.021-0.003-0.033c-0.012-0.041-0.01-0.084,0.004-0.121
			c0.006-0.018,0.014-0.032,0.024-0.047c0.023-0.03-0.081-0.026-0.101-0.025c-0.001,0-0.003-0.001-0.004-0.002s-0.001-0.003,0-0.005
			c0.005-0.009,0.006-0.019,0.013-0.023c0.01-0.01,0.022-0.012,0.034-0.021c0.024-0.014,0.004-0.022-0.005-0.024
			c-0.021-0.006-0.043-0.009-0.064-0.009c-0.008,0-0.017,0.001-0.025,0.005c-0.005,0.002-0.012,0.008-0.018,0.019
			c-0.013,0.018-0.028,0.033-0.046,0.047c-0.001,0.002-0.002,0.002-0.003,0.002c-0.005,0.005-0.011,0.006-0.017,0.004
			c-0.003-0.002-0.007-0.002-0.01,0c0,0-0.001,0-0.002,0c-0.006,0.004-0.01,0.008-0.014,0.014s-0.003,0.016,0.002,0.02
			c0.005,0.006,0.014,0.009,0.021,0.004l0,0c0.001,0.002,0.001,0.006,0,0.009c-0.004,0.008-0.005,0.019-0.009,0.024
			c0,0.002-0.001,0.002-0.002,0.002c-0.001,0.002-0.003,0-0.004-0.002c-0.004-0.006-0.006-0.006-0.009-0.006h-0.001
			c-0.013,0.004-0.021,0.032-0.021,0.041c0,0.002,0.001,0.004,0.002,0.006c0.016,0.019,0.017,0.043,0.003,0.063l0,0
			c-0.001,0.002-0.003,0.004-0.004,0.006c-0.002,0.005,0,0.011,0.003,0.013c0.004,0.002,0.009,0.002,0.012-0.002
			c0.004-0.005,0.008-0.01,0.015-0.017c0.005-0.008,0.007-0.011,0.016-0.015c0.007-0.002,0.014-0.006,0.021-0.008
			c0.002,0,0.005,0,0.007,0.002c0.002,0.002,0.003,0.004,0.003,0.008c0,0.016,0.004,0.031-0.011,0.043
			c-0.009,0.009-0.016,0.015-0.021,0.019s-0.006,0.013-0.003,0.019c0.003,0.007,0.01,0.01,0.017,0.008h0.001
			c0,0.001,0.001,0.002,0.001,0.002c0.004,0.02,0.005,0.02,0.029,0.004c0.001,0,0.002,0,0.003,0l0,0
			c0.003,0.008,0.009,0.012,0.016,0.016c0.009,0.004,0.016,0.014,0.018,0.023c0,0,0,0,0,0.002c0,0,0,0,0,0.001
			c0.008,0.024,0.001,0.054-0.018,0.071c-0.019,0.019-0.047,0.025-0.072,0.018l0,0c-0.004-0.001-0.009,0-0.011,0.004
			c-0.003,0.004-0.002,0.01,0,0.012c0.002,0.004,0.005,0.008,0.005,0.012c0,0.017-0.021,0.011-0.027,0.021l0,0
			c0,0.001,0,0.002-0.001,0.003c0,0.002,0.001,0.004,0.002,0.006s0.003,0.002,0.005,0.002c0.009-0.002,0.017-0.011,0.026-0.011
			c0.018-0.002,0.004,0.044-0.001,0.052c-0.007,0.006-0.053,0.022-0.067,0.024c-0.009,0.002-0.016,0.002-0.019,0.006
			c-0.003,0.003-0.005,0.021,0.008,0.028c0.02,0.009,0.038-0.008,0.057-0.003l0,0c0.019,0.005,0.035,0.016,0.048,0.028
			c0.001,0,0.002,0.002,0.004,0.002c0.006,0.002,0.013,0.002,0.02,0c0.001,0,0.003-0.002,0.004-0.002
			c0.005-0.006,0.011-0.006,0.016-0.008c0.004,0,0.008,0.004,0.009,0.008s0,0.008-0.003,0.01c-0.014,0.012-0.028,0.021-0.048,0.02
			c-0.011-0.001-0.021-0.001-0.032,0c-0.033,0.003-0.063,0.02-0.087,0.042c-0.008,0.009-0.016,0.017-0.023,0.022
			c-0.004,0.005-0.004,0.012-0.001,0.017c0.003,0.004,0.01,0.006,0.015,0.002c0.003-0.002,0.007-0.004,0.011-0.007
			c0.014-0.009,0.04-0.02,0.053,0.008v0.001c0.002,0,0.004,0,0.006-0.002c0.019-0.014,0.028-0.04,0.056-0.043
			c0.02-0.001,0.034,0.019,0.054,0.015c0.022-0.004,0.041-0.021,0.065-0.021c0.009,0.001,0.034,0.007,0.036,0.009
			c0.007,0.005,0.007,0.005,0.043,0.005c0.016,0,0.027,0.014,0.041,0.016c0.018,0.003,0.034-0.008,0.051-0.006l0,0l0,0
			c0,0,0.053-0.01,0.052-0.031c0-0.001,0-0.002,0-0.002s0,0-0.001,0C72.741,184.01,72.729,183.992,72.726,183.971 M72.266,183.773
			c0.016-0.008,0.002-0.024,0.006-0.037c0.011-0.031,0.018-0.032,0.031-0.034c0.012-0.002,0.024-0.003,0.028-0.011
			c0.02-0.029-0.051-0.114-0.096-0.104c-0.046,0.014-0.083,0.08-0.099,0.079c-0.02-0.001-0.028-0.002-0.042,0.009
			c-0.01,0.008-0.012,0.021-0.019,0.029c-0.009,0.012-0.021,0.021-0.029,0.031c-0.008,0.01-0.011,0.018,0,0.027
			c0.008,0.008,0.012,0.012-0.011,0.041c-0.019,0.022-0.05,0.036-0.063,0.066c-0.005,0.011-0.004,0.031-0.002,0.041
			c0.006,0.031,0.055,0.02,0.084,0.006c0.026-0.011,0.051-0.027,0.08-0.034c0-0.001,0-0.001,0-0.001
			c0.039-0.011,0.073,0,0.084-0.015c0.011-0.015,0.031-0.041,0.04-0.063C72.263,183.797,72.252,183.781,72.266,183.773
			 M68.843,190.339c-0.019-0.151-0.502-0.706-0.64-0.81c-0.108-0.081-0.187-0.082-0.187-0.082c0.006-0.067-0.02-0.135-0.07-0.18
			c-0.02-0.019-0.034-0.041-0.048-0.063c-0.019-0.03-0.052-0.05-0.088-0.05c-0.037,0-0.07,0.02-0.089,0.05l0,0
			c0.033-0.108,0.034-0.113-0.052-0.22c-0.046-0.057-0.052-0.051,0.004-0.154c0.008-0.143-0.271-0.596-0.517-0.873
			c-0.008-0.01-0.02-0.014-0.035-0.012c-0.025-0.022-0.147-0.471-0.174-0.576c-0.001-0.005,0-0.01,0.003-0.014
			c0.021-0.026,0.03-0.062,0.023-0.094c-0.005-0.027-0.016-0.06-0.018-0.087c-0.003-0.051-0.051-0.094-0.06-0.088
			c-0.013,0.011-0.028,0.013-0.04,0.006c-0.013-0.005-0.022-0.016-0.025-0.032c-0.01-0.056-0.059-0.095-0.115-0.095
			c-0.022,0-0.027-0.006-0.03-0.021C66.63,187.289,66.6,187.641,66.6,188c0,1.707,0.667,3.257,1.754,4.402
			c-0.049-0.063-0.103-0.178-0.103-0.193c-0.001-0.045-0.011-0.089-0.027-0.131c-0.014-0.035-0.03-0.069-0.046-0.104
			c-0.054-0.117,0.188-0.138,0.255-0.248l0,0c0.005-0.01,0.046-0.016,0.095,0.021c0.039,0.026,0.095-0.036,0.09-0.06
			c-0.016-0.071-0.017-0.084-0.007-0.148c0.015-0.111-0.016-0.389-0.029-0.426c-0.044-0.127-0.054-0.19-0.054-0.221
			c0-0.022,0.06-0.039,0.071-0.078c0.022-0.074,0.151-0.215,0.191-0.282C68.824,190.473,68.852,190.406,68.843,190.339
			 M70.075,182.432c-0.011-0.018-0.032-0.024-0.052-0.019c-0.014,0.005-0.04,0.013-0.048,0.001c-0.002-0.004-0.002-0.01,0-0.014
			c0.006-0.01,0.021-0.03,0.023-0.039c0.001-0.008,0.005-0.016,0.011-0.021c0.002-0.002,0.005-0.004,0.008-0.006
			c-0.625,0.33-1.189,0.761-1.671,1.271c0.002,0,0.004,0,0.006,0c0.076,0.021,0.07,0.004,0.135-0.074
			c0.038-0.045,0.106-0.063,0.145-0.076c0.038-0.014,0.101-0.02,0.101-0.02c0.037-0.006,0.142,0.018,0.172-0.008
			c0.025-0.021-0.007-0.027,0.008-0.051c0.014-0.021,0.026-0.044,0.036-0.068c0.008-0.021,0.034-0.025,0.052-0.037
			c0.032-0.021,0.001-0.021-0.005-0.029c-0.005-0.008,0-0.037,0.012-0.039l0,0c0.017,0.016,0.04,0.021,0.062,0.018
			c0.019-0.006,0.026-0.012,0.032-0.022c0.003-0.009,0.011-0.015,0.02-0.019l0,0c0.052-0.125-0.179-0.055-0.179-0.055
			c-0.009-0.018,0.122-0.061,0.143-0.066v0.002l0,0c0.012,0.002,0.023,0,0.034-0.004c0.063-0.022,0.133,0.008,0.158,0.068v0.001
			c0.007,0.017,0.021,0.028,0.038,0.034c0.021,0.006,0.041,0.012,0.063,0.003c0.112-0.042,0.145-0.006,0.238-0.048c0,0,0,0,0.001,0
			c0.122-0.055,0.127-0.325,0.293-0.475c0.016-0.015,0.034-0.027,0.052-0.039c0.03-0.021,0.05-0.049,0.071-0.076
			c0.01-0.014,0.021-0.027,0.033-0.039C70.083,182.473,70.085,182.449,70.075,182.432 M79.174,186.313
			c0.004,0.015,0.009,0.028,0.013,0.043c-0.522-1.973-1.962-3.569-3.835-4.311c0.013,0.01,0.02,0.027,0.018,0.044
			c-0.006,0.032-0.043,0.041-0.046,0.048c-0.009,0.023,0.052,0.055,0.069,0.072c0.01,0.01,0.01,0.025,0.001,0.035
			c-0.001,0-0.001,0-0.001,0c-0.03-0.008-0.062,0.001-0.084,0.021c-0.022,0.02-0.055,0.032-0.073,0.039
			c-0.011,0.004-0.021,0.01-0.03,0.02l0,0c-0.011-0.004-0.021-0.004-0.031,0c-0.042,0.016-0.066,0.096-0.058,0.125
			c0.003,0.011,0.001,0.023-0.007,0.033c-0.01,0.012-0.025,0.017-0.041,0.012c-0.009-0.003-0.033,0.018-0.021,0.027
			c0.014,0.01-0.006,0.018-0.02,0.026c-0.008,0.007-0.017,0.009-0.025,0.004c-0.051-0.015-0.048-0.026-0.063,0.013
			c-0.008,0.02-0.018,0.037-0.03,0.053c-0.008,0.01-0.007,0.023,0.002,0.033c0.075,0.072-0.033,0.061-0.071,0.043
			c-0.035-0.017-0.056,0.045,0.009,0.045c0.019,0,0.035,0.008,0.047,0.021c0-0.001,0,0,0,0c0.034,0.037-0.043,0.024-0.091,0.009
			c-0.04-0.016-0.078-0.035-0.112-0.063c-0.021-0.017-0.029-0.045-0.02-0.07c0.009-0.024,0.033-0.043,0.061-0.042
			c0.039,0.001,0.072-0.027,0.077-0.066s-0.021-0.074-0.06-0.082c-0.095-0.021-0.199-0.008-0.286-0.049
			c-0.075-0.035-0.138-0.027-0.157-0.054c-0.008-0.012-0.012-0.024-0.01-0.039l0,0c-0.04-0.008-0.066-0.013-0.083-0.017
			c-0.018-0.004-0.068-0.004-0.138,0.018c-0.15,0.049-0.293,0.188-0.293,0.188l0,0c0,0-0.029,0.049-0.057,0.081
			c-0.025,0.027-0.045,0.063-0.072,0.09c-0.012,0.01-0.02,0.023-0.022,0.039l0,0l0,0c-0.015,0.004-0.026,0.016-0.03,0.029
			c-0.019,0.065-0.069,0.162-0.345,0.278l0,0c-0.081,0.033-0.132,0.115-0.128,0.203c0.005,0.087,0.063,0.162,0.147,0.188
			c0.104,0.031,0.128-0.084,0.245-0.049c0.045,0.015,0.08,0.047,0.096,0.09c0.02,0.055,0.046,0.086,0.048,0.154
			c0.023,0.023,0.093,0.075,0.101,0.04c0.02-0.083,0.104-0.028,0.141-0.099c0.031-0.059-0.016-0.121,0.007-0.182
			c0,0,0,0,0.001-0.002c0.028-0.069,0.036-0.146,0.021-0.221c-0.007-0.035,0.002-0.087,0.019-0.188
			c0.007-0.039,0.083-0.061,0.102-0.09c0.032-0.049-0.021-0.145,0.059-0.162c0.039-0.008,0.11,0.011,0.12,0.052
			c0.003,0.015,0,0.03-0.01,0.042c-0.022,0.027-0.032,0.066-0.053,0.099c-0.04,0.063-0.049,0.14-0.023,0.209
			c0.022,0.062,0.059,0.114,0.115,0.119c0.017,0.001,0.033-0.004,0.047-0.012l0,0c0-0.001,0.001-0.001,0.001-0.001l0,0l0.082-0.028
			c0.067-0.022,0.141-0.028,0.211-0.014l0,0c0.007,0.002,0.012,0.007,0.014,0.014c0.002,0.006,0,0.015-0.006,0.019
			c-0.084,0.076-0.101,0.024-0.189,0.041c-0.031,0.006-0.055,0.031-0.059,0.063c-0.003,0.027,0.01,0.055,0.033,0.068
			c0.005,0.003,0.008,0.008,0.007,0.014l0,0c-0.002,0.027-0.019,0.051-0.044,0.063c-0.019,0.008-0.039,0.008-0.058-0.002
			c-0.014-0.006-0.03-0.004-0.043,0.004c-0.025,0.019-0.017,0.029-0.021,0.053c-0.008,0.035-0.006,0.072,0.006,0.107l0,0
			c0.02,0.057-0.085,0.157-0.128,0.149c-0.086-0.017-0.176-0.002-0.253,0.039c-0.036,0.021-0.081,0.014-0.112-0.015l0,0
			c-0.021-0.021-0.001-0.027-0.026-0.043c-0.006-0.004-0.141,0.053-0.146,0.055s-0.013,0.002-0.019-0.002s-0.009-0.01-0.01-0.016
			c0,0,0,0,0-0.002c-0.005-0.037-0.18-0.033-0.043-0.185c0-0.001,0-0.001,0-0.002c0.015-0.017,0.021-0.036,0.018-0.058
			c-0.006-0.035,0.002-0.067-0.03-0.082c-0.001,0-0.001,0-0.001,0.002c-0.071,0.074-0.105,0.178-0.092,0.279
			c0.009,0.113-0.046,0.096-0.088,0.094c-0.018,0-0.034,0.006-0.046,0.021l0,0c-0.017,0-0.04,0-0.08,0.004
			c-0.017,0.002-0.032,0.011-0.043,0.024c-0.001,0-0.001,0.003-0.001,0.005c0.001,0.01-0.005,0.019-0.015,0.021
			c-0.03,0.006-0.059,0.021-0.082,0.043c-0.054,0.049-0.082,0.069-0.139,0.103c-0.04,0.021-0.075,0.051-0.105,0.085
			c-0.012,0.015-0.039,0.029-0.102,0.064c-0.006,0.004-0.01,0.01-0.011,0.017c-0.003,0.014-0.015,0.022-0.028,0.024
			c-0.056,0.01-0.072-0.004-0.104-0.024c-0.017-0.013-0.029,0.012-0.025,0.024v0.002c0.004,0.015,0.001,0.028-0.007,0.041
			c-0.009,0.012-0.022,0.02-0.037,0.021c-0.039,0.002-0.077-0.007-0.112-0.022c-0.003-0.002-0.007-0.002-0.01-0.002
			c-0.056,0.019-0.089,0.086-0.075,0.086c0.097,0.012,0.095,0.027,0.134,0.053c0.046,0.029,0.024,0.119,0.094,0.127h0.001
			c0.009,0,0.016,0.072,0.018,0.08s-0.001,0.014-0.007,0.018l0,0c-0.021,0.014-0.035,0.036-0.038,0.061
			c-0.006,0.047-0.001,0.099-0.033,0.139c-0.013,0.017-0.043,0.048-0.08,0.033c-0.038-0.014-0.079-0.021-0.12-0.023
			c-0.169-0.008-0.268-0.044-0.318-0.068c-0.037-0.019-0.081-0.011-0.107,0.021l0,0c-0.012,0-0.026,0.001-0.04,0.002
			c-0.025,0.002-0.042,0.024-0.037,0.049c0.013,0.056,0.013,0.111-0.051,0.274c-0.002,0.008-0.006,0.017-0.009,0.021
			c-0.021,0.039-0.096,0.115-0.078,0.135c0.002,0.002,0.005,0.004,0.008,0.004c0.016,0,0.03,0.011,0.035,0.025
			c0.005,0.012,0.006,0.025,0.002,0.038c-0.005,0.021-0.028,0.097-0.019,0.114c0.005,0.011,0.015,0.019,0.026,0.021
			c0.016,0.006,0.027,0.018,0.042,0.026c0.01,0.006,0.044-0.011,0.065-0.019c0.015-0.006,0.024-0.012,0.058,0.027
			c0.031,0.035,0.007,0.117,0.072,0.119c0.018,0,0.028-0.018,0.032-0.027c0.005-0.012,0.005-0.012,0.131-0.039
			c0.056-0.013,0.11,0.022,0.166,0.006c0.043-0.014,0.045-0.069,0.089-0.082c0.029-0.008,0.06,0.009,0.089-0.008
			c0.015-0.008,0.001-0.055,0.018-0.07l0,0c0.026-0.021,0.037-0.057,0.026-0.09c-0.005-0.016-0.004-0.021-0.001-0.031
			c0.003-0.014,0.044-0.037,0.067-0.092c0.002-0.006,0.004-0.01,0.008-0.012c0.077-0.07,0.182-0.088,0.269-0.138
			c0.077-0.044,0.023-0.163,0.114-0.198c0.083-0.033,0.146,0.082,0.233,0.033c0.091-0.053,0.205-0.117,0.229-0.119
			c0.024,0,0.047,0.006,0.066,0.014c0.028,0.015,0.053,0.035,0.069,0.063c0.083,0.133,0.242,0.188,0.338,0.31
			c0.015,0.02,0.088,0.063,0.116,0.09c0.046,0.041,0.02-0.014,0.059,0.055c0.001,0,0.001,0.001,0.001,0.001
			c0.02,0.03,0.054,0.083,0.021,0.097c-0.022,0.01-0.022,0.016-0.022,0.023c0.001,0.018-0.014,0.033-0.004,0.051
			c0.003,0.006,0.015,0.021,0.039,0.01c0.029-0.016,0.019-0.021,0.029-0.043c0.028-0.057,0.027-0.06,0.027-0.06
			c0.01-0.007,0.027-0.001,0.03-0.019c0.008-0.039-0.02-0.053-0.038-0.062c-0.012-0.006-0.033-0.017-0.021-0.049
			c0.001-0.003,0.001-0.003,0.001-0.005c0.001,0,0.001,0,0.001,0c0.014-0.028,0.048-0.043,0.078-0.029
			c0.022,0.009,0.039,0.014,0.047,0.036c0.002,0.004,0.003,0.008,0.003,0.012c-0.001,0.011-0.001,0.021,0.003,0.022
			c0.006,0.006,0.027,0,0.033-0.01c0.003-0.006,0.007-0.026,0.007-0.033l0,0l0,0c0-0.002-0.001-0.002-0.001-0.004
			c-0.055-0.084-0.155-0.092-0.233-0.137c-0.009-0.004-0.014-0.014-0.015-0.023c-0.002-0.019-0.019-0.032-0.038-0.032
			c-0.048,0-0.093-0.022-0.12-0.063l-0.164-0.238c-0.007-0.01-0.013-0.02-0.019-0.03c-0.011-0.019-0.002-0.043,0.019-0.052
			c0.001,0,0.002,0,0.004,0c0.031-0.01,0.065,0.002,0.083,0.029c0.01,0.014,0.019,0.029,0.035,0.029
			c0.02-0.002,0.039,0.004,0.056,0.016l0.281,0.205l0,0c0,0,0.023,0.006,0.06,0.029c0.008,0.006,0.017,0.008,0.026,0.008
			c0.014-0.001,0.027,0.004,0.038,0.012c0.043,0.035,0.07,0.084,0.077,0.14c0.003,0.024,0.005,0.047,0.006,0.063l0,0
			c0.001,0.021,0.012,0.039,0.028,0.051c0.008,0.006,0.018,0.013,0.022,0.019c0.007,0.007,0.009,0.009,0.021,0.031
			c0.005,0.009,0.038,0.038,0.041,0.04v0.001c0.002,0.001,0.005,0.003,0.011,0.003h0.001c0.011,0.001,0.02-0.004,0.03-0.003
			c0.03,0.002,0.075,0.04,0.11,0.022c0.003-0.002,0.04-0.022,0.04-0.022l0,0c0.085-0.04-0.02-0.079-0.022-0.118
			c-0.002-0.014,0.004-0.023,0.013-0.031c0.009-0.006,0.021-0.007,0.031-0.002c0.007,0.004,0.015,0.002,0.021-0.002l0,0
			c0.007-0.004,0.012-0.012,0.013-0.02c0.01-0.045,0.056-0.06,0.101-0.06c0.037,0,0.074,0.011,0.107,0.028
			c0.014,0.007,0.028,0.011,0.044,0.011h0.001c0.029-0.002,0.057-0.012,0.08-0.028c0.012-0.01-0.014,0.021-0.069,0.043
			c-0.001,0-0.001,0-0.001,0c-0.023,0.01-0.036,0.033-0.031,0.059c0.012,0.049,0.113,0.098,0.047,0.16
			c-0.001,0.001-0.002,0.002-0.002,0.002l0,0c0.037,0.016,0.068,0.043,0.089,0.076c0.067,0.113,0.294,0.148,0.313,0.102
			c0,0,0,0,0.001-0.001c0.01-0.026,0.038-0.038,0.064-0.028c0.052,0.021,0.098,0.059,0.157,0.053
			c0.034-0.004,0.059-0.018,0.078-0.033c0.056-0.049,0.126-0.077,0.199-0.083l0,0c0,0,0.001,0,0.001,0.001
			c0.001,0.001,0.001,0.001,0.001,0.001c-0.037,0.217,0.204,0.457-0.033,0.653c-0.02,0.016-0.053,0.021-0.076,0.026
			c-0.215,0.038-0.432,0.005-0.646,0.019c-0.124,0.009-0.143-0.035-0.181-0.036h-0.001h-0.001c-0.042,0.002-0.05,0.002-0.112-0.015
			c-0.039-0.008-0.143-0.156-0.284-0.041c-0.041,0.032-0.065,0.075-0.063,0.101c0.018,0.354-0.418,0.094-0.45,0.055
			c-0.05-0.06-0.116-0.103-0.19-0.124c-0.082-0.023-0.181-0.056-0.243-0.089c-0.047-0.024-0.104-0.039-0.128-0.041
			c-0.009-0.001-0.014-0.044,0.014-0.069c0.07-0.072,0.092-0.101,0.069-0.139c-0.059-0.1-0.02-0.091-0.071-0.156
			c-0.001,0-0.001,0-0.001,0c-0.019-0.025-0.047-0.037-0.077-0.035c-0.879,0.057-1.069,0.082-1.243,0.164
			c-0.015,0.008-0.046,0.022-0.096,0.002c-0.038-0.019-0.08-0.021-0.119-0.006l0,0c-0.057-0.037-0.131-0.033-0.185,0.01
			l-0.287,0.231c-0.029,0.022-0.054,0.054-0.074,0.084c-0.052,0.082-0.048,0.144-0.047,0.172c0.005,0.093-0.258,0.263-0.396,0.245
			l0,0l0,0c-0.063,0.025-0.118,0.049-0.437,0.492c-0.175,0.244-0.175,0.244-0.14,0.313c0.019,0.037,0.058,0.11,0.029,0.313
			c-0.002,0.013-0.004,0.025-0.008,0.039c-0.001,0.007-0.003,0.013-0.005,0.02l-0.123,0.407c-0.035,0.113-0.012,0.237,0.061,0.332
			l0,0c0,0.001,0,0.001,0.001,0.002l0.027,0.05c0.004,0.01,0.008,0.019,0.012,0.026c0.026,0.06,0.063,0.394,0.162,0.544
			c0.015,0.023,0.033,0.045,0.053,0.064l0.311,0.306c0.055,0.054,0.163,0.091,0.238,0.104c0.222,0.043,0.457,0.045,0.675,0.127
			c0.01,0.004,0.025,0.01,0.036,0.01c0.252,0.018,0.459-0.192,0.703-0.211c0.058-0.004,0.174,0.033,0.204,0.205
			c0.022,0.127,0.219,0.088,0.311,0.061c0.042-0.014,0.087-0.01,0.128,0.007h0.001c0,0.001,0,0.001,0,0.001
			c0.003,0.028,0.027,0.049,0.055,0.047c0.001,0,0.002,0,0.003,0c0.016-0.003,0.031,0.006,0.04,0.019
			c0.05,0.077,0.04,0.126,0.032,0.163l0,0c0,0,0,0,0,0.002l-0.003,0.012c0,0.001,0,0.001,0,0.002
			c-0.002,0.009-0.004,0.02-0.005,0.027c-0.025,0.188-0.01,0.275-0.097,0.345c-0.01,0.008-0.017,0.017-0.021,0.028
			c0.094,0.191,0.3,0.291,0.3,0.291c0.029,0.031,0.207,0.336,0.226,0.472c0.028,0.205,0.028,0.166,0.034,0.175
			c0.09,0.146,0.011,0.219-0.044,0.246c-0.017,0.01-0.025,0.016-0.03,0.023c-0.008,0.017-0.018,0.033-0.028,0.048
			c-0.009,0.013-0.122,0.317-0.122,0.382v0.001c0.001,0.058,0.097,0.112,0.131,0.161l0.218,0.304
			c0.004,0.005,0.008,0.011,0.012,0.017c0.075,0.095-0.041,0.229,0.026,0.324c0.022,0.03,0.076,0.155,0.104,0.176
			c0.044,0.029,0.229,0.297,0.174,0.342c-0.006,0.006-0.005,0.019-0.003,0.025c0.017,0.047,0.24,0.123,0.323,0.088
			c0.123-0.053,0.381-0.094,0.485-0.093c0.146,0.001,0.844-0.5,0.789-0.673c-0.001-0.002-0.001-0.004-0.001-0.007l0,0
			c0.082-0.097,0.318-0.216,0.313-0.228c0,0,0,0-0.001,0c0.031-0.068,0.042-0.125,0.042-0.17c0.002-0.123,0.061-0.236,0.158-0.31
			c0.084-0.062,0.206-0.149,0.385-0.279c0.111-0.081,0.168-0.139,0.158-0.487c-0.009-0.318-0.065-0.568-0.085-0.623
			c-0.026-0.075-0.02-0.09,0.011-0.146c0.09-0.165,0.212-0.312,0.298-0.479c0.136-0.268,0.304-0.424,0.396-0.51
			c0.004-0.004,0.008-0.008,0.012-0.012c0.166-0.195,0.262-0.459,0.322-0.706c0.013-0.052,0.033-0.103,0.048-0.153
			c0.012-0.039,0.029-0.072,0.05-0.272c0.003-0.035-0.016-0.065-0.015-0.101c0.008-0.133-0.037-0.016-0.076,0.004
			c-0.1,0.047-0.046,0.029-0.089,0.059c-0.021,0.014-0.182,0.068-0.2,0.088c-0.023,0.021-0.044,0.044-0.077,0.049
			c-0.197,0.024-0.231,0.028-0.267-0.004c-0.033-0.029-0.054-0.068-0.063-0.111c-0.01-0.047-0.033-0.09-0.068-0.123
			c-0.188-0.176-0.559-0.291-0.646-0.769c-0.014-0.071-0.539-0.832-0.647-0.983c-0.012-0.019-0.016-0.039-0.011-0.061
			c0.001-0.001,0.001-0.001,0.001-0.001c0.021,0.054,0.102,0.146,0.151,0.197c0.015,0.015,0.034,0.021,0.051,0.009
			c0.02-0.016,0.007-0.036,0.011-0.105c0.001-0.021,0.03-0.021,0.033-0.002c0.007,0.043,0.028,0.084,0.06,0.113
			c0.07,0.067,0.155,0.192,0.211,0.28c0.034,0.054,0.081,0.098,0.137,0.129c0.08,0.045,0.104,0.119,0.161,0.294
			c0.067,0.207,0.31,0.257,0.399,0.443c0.075,0.158,0.096,0.338,0.192,0.486c0.001,0.002,0.001,0.002,0.002,0.004
			c0.013,0.017,0.033,0.023,0.054,0.021c0.146-0.035,0.316-0.22,0.358-0.251c0.089-0.069,0.153-0.121,0.2-0.161
			c0.064-0.054,0.109-0.127,0.128-0.208c0.017-0.068,0.121-0.13,0.152-0.13c0.082,0,0.046-0.106,0.08-0.154
			c0.036-0.051,0.039-0.106,0.081-0.151c0.014-0.015,0.029-0.025,0.047-0.033c0.001-0.002,0.003-0.004,0.003-0.006
			c0.011-0.053-0.023-0.103-0.022-0.154c0-0.014,0.013-0.023,0.026-0.021h0.001c0,0,0.001,0,0.001-0.002
			c0.029-0.166,0.085-0.306-0.062-0.375c-0.059-0.027-0.128,0.017-0.183-0.029c0-0.002-0.001-0.002-0.001-0.002
			c-0.029-0.024-0.069-0.035-0.108-0.027c-0.038,0.009-0.07,0.033-0.088,0.068l0,0c-0.016,0.031-0.045,0.054-0.078,0.058
			c-0.055,0.008-0.049,0.019-0.091,0.049l0,0c-0.089-0.046-0.145-0.051-0.458-0.519c-0.094-0.141,0.033-0.211,0.077-0.158h0.001l0,0
			c0.039,0.042,0.198,0.21,0.327,0.281c0.044,0.025,0.177,0.06,0.201,0.015c0.089-0.164,0.153-0.045,0.166-0.019
			c0.066,0.141,0.25,0.019,0.291,0.021c0.09,0.004,0.081-0.015,0.338-0.159c0.102-0.058,0.224-0.066,0.333-0.023
			C79.053,186.113,79.137,186.201,79.174,186.313 M73.982,185.561c0.003-0.022,0.021-0.041,0.025-0.063
			c0.002-0.011-0.002-0.015-0.011-0.017c-0.001,0-0.002,0-0.004,0c-0.006,0.002-0.011,0.004-0.017,0.006
			c-0.02,0.002-0.018-0.008-0.034,0.002c-0.009,0.006-0.017,0.013-0.026,0.016c-0.01,0.002-0.019-0.004-0.028-0.004
			c-0.013,0.002-0.021,0.016-0.035,0.016c-0.018-0.002-0.029-0.018-0.047-0.021c-0.011-0.002-0.018,0.011-0.028,0.01
			c-0.01-0.001-0.007-0.005-0.016-0.009c-0.014-0.004-0.029,0.045-0.026,0.05c0.004,0.007,0.011,0.009,0.015,0.009c0,0,0,0,0.001,0
			c0.007,0,0.013-0.006,0.021-0.006c0.021-0.001,0.086,0.045,0.109,0.055c0.007,0.004,0.016,0.004,0.022,0.008
			c0.013,0.009,0.022,0.021,0.036,0.027c0.005,0.002,0.013,0.006,0.023,0.004c0.008,0,0.02-0.004,0.032-0.043
			C74,185.583,73.98,185.574,73.982,185.561"/>
	</g>
</g>
<path fill="#0B0B0B" d="M91,160.666l-4.375,4.667L86,166l-0.625-0.667l0,0L81,160.666L81.625,160L86,164.667L90.375,160L91,160.666z
	"/>
<path fill="#FFFFFF" d="M91,180.666l-4.375,4.667L86,186l-0.625-0.667l0,0L81,180.666L81.625,180L86,184.667L90.375,180L91,180.666z
	"/>
</svg>
